<?xml version="1.0" encoding="UTF-8" standalone="no"?>
<svg
   xmlns:dc="http://purl.org/dc/elements/1.1/"
   xmlns:cc="http://creativecommons.org/ns#"
   xmlns:rdf="http://www.w3.org/1999/02/22-rdf-syntax-ns#"
   xmlns:svg="http://www.w3.org/2000/svg"
   xmlns="http://www.w3.org/2000/svg"
   xmlns:sodipodi="http://sodipodi.sourceforge.net/DTD/sodipodi-0.dtd"
   xmlns:inkscape="http://www.inkscape.org/namespaces/inkscape"
   height="79.857475"
   width="80.015038"
   viewBox="0 0 80.015038 79.857475"
   version="1.1"
   id="svg103"
   sodipodi:docname="Firefox.svg"
   inkscape:version="0.92.4 (5da689c313, 2019-01-14)">
  <metadata
     id="metadata109">
    <rdf:RDF>
      <cc:Work
         rdf:about="">
        <dc:format>image/svg+xml</dc:format>
        <dc:type
           rdf:resource="http://purl.org/dc/dcmitype/StillImage" />
        <dc:title></dc:title>
      </cc:Work>
    </rdf:RDF>
  </metadata>
  <defs
     id="defs107" />
  <sodipodi:namedview
     pagecolor="#ffffff"
     bordercolor="#666666"
     borderopacity="1"
     objecttolerance="10"
     gridtolerance="10"
     guidetolerance="10"
     inkscape:pageopacity="0"
     inkscape:pageshadow="2"
     inkscape:window-width="1920"
     inkscape:window-height="1057"
     id="namedview105"
     showgrid="false"
     fit-margin-top="0"
     fit-margin-left="0"
     fit-margin-right="0"
     fit-margin-bottom="0"
     inkscape:zoom="1.5661157"
     inkscape:cx="121.01585"
     inkscape:cy="39.856148"
     inkscape:window-x="-8"
     inkscape:window-y="-8"
     inkscape:window-maximized="1"
     inkscape:current-layer="svg103" />
  <radialGradient
     id="a"
     cx="76.722213"
     cy="11.990494"
     r="71.941919"
     gradientTransform="matrix(1.0009955,0,0,0.99900553,0.01585033,0.00132651)"
     fx="76.722213"
     fy="11.990494"
     gradientUnits="userSpaceOnUse">
    <stop
       offset="0"
       stop-color="#fff36e"
       id="stop2" />
    <stop
       offset=".5"
       stop-color="#fc4055"
       id="stop4" />
    <stop
       offset="1"
       stop-color="#e31587"
       id="stop6" />
  </radialGradient>
  <radialGradient
     id="b"
     cx="7.9777123"
     cy="14.388559"
     r="55.954826"
     gradientTransform="matrix(1.0009955,0,0,0.99900553,0.01585033,0.00132651)"
     fx="7.9777123"
     fy="14.388559"
     gradientUnits="userSpaceOnUse">
    <stop
       offset="0"
       stop-color="#c60084"
       id="stop9" />
    <stop
       offset="1"
       stop-color="#fc4055"
       stop-opacity="0"
       id="stop11" />
  </radialGradient>
  <radialGradient
     id="c"
     cx="87.913182"
     cy="6.3950111"
     r="106.31418"
     gradientTransform="matrix(1.0009955,0,0,0.99900553,0.01585033,0.00132651)"
     fx="87.913182"
     fy="6.3950111"
     gradientUnits="userSpaceOnUse">
    <stop
       offset="0"
       stop-color="#ffde67"
       stop-opacity=".6"
       id="stop14" />
    <stop
       offset=".66"
       stop-color="#fc4055"
       stop-opacity="0"
       id="stop16" />
  </radialGradient>
  <radialGradient
     id="d"
     cx="35.155771"
     cy="40.767262"
     r="139.88707"
     gradientTransform="matrix(1.0009955,0,0,0.99900553,0.01585033,0.00132651)"
     fx="35.155771"
     fy="40.767262"
     gradientUnits="userSpaceOnUse">
    <stop
       offset=".15"
       stop-color="#810220"
       id="stop19" />
    <stop
       offset=".27"
       stop-color="#fc4055"
       stop-opacity="0"
       id="stop21" />
  </radialGradient>
  <radialGradient
     id="e"
     cx="42.349961"
     cy="43.964682"
     r="127.89675"
     gradientTransform="matrix(1.0009955,0,0,0.99900553,0.01585033,0.00132651)"
     fx="42.349961"
     fy="43.964682"
     gradientUnits="userSpaceOnUse">
    <stop
       offset=".12"
       stop-color="#810220"
       id="stop24" />
    <stop
       offset=".3"
       stop-color="#fc4055"
       stop-opacity="0"
       id="stop26" />
  </radialGradient>
  <radialGradient
     id="f"
     cx="69.879503"
     cy="8.4029421"
     r="79.546402"
     gradientTransform="matrix(0.99880145,0,0,1.0012,0.01585033,0.00132651)"
     fx="69.879503"
     fy="8.4029421"
     gradientUnits="userSpaceOnUse">
    <stop
       offset="0"
       stop-color="#ff9640"
       id="stop29" />
    <stop
       offset=".8"
       stop-color="#fc4055"
       id="stop31" />
  </radialGradient>
  <radialGradient
     id="g"
     cx="70.596141"
     cy="13.419382"
     r="80.979669"
     gradientTransform="matrix(0.99880145,0,0,1.0012,0.01585033,0.00132651)"
     fx="70.596141"
     fy="13.419382"
     gradientUnits="userSpaceOnUse">
    <stop
       offset=".09"
       stop-color="#ffde67"
       id="stop34" />
    <stop
       offset=".82"
       stop-color="#ff9640"
       stop-opacity="0"
       id="stop36" />
  </radialGradient>
  <radialGradient
     id="h"
     cx="50.53038"
     cy="35.635044"
     r="38.698251"
     gradientTransform="matrix(0.99880145,0,0,1.0012,0.01585033,0.00132651)"
     fx="50.53038"
     fy="35.635044"
     gradientUnits="userSpaceOnUse">
    <stop
       offset=".36"
       stop-color="#fc4055"
       id="stop39" />
    <stop
       offset=".59"
       stop-color="#ff9640"
       stop-opacity="0"
       id="stop41" />
  </radialGradient>
  <radialGradient
     id="i"
     cx="43.364036"
     cy="37.784945"
     r="38.698251"
     gradientTransform="matrix(0.99880145,0,0,1.0012,0.01585033,0.00132651)"
     fx="43.364036"
     fy="37.784945"
     gradientUnits="userSpaceOnUse">
    <stop
       offset=".22"
       stop-color="#fc4055"
       stop-opacity=".8"
       id="stop44" />
    <stop
       offset=".47"
       stop-color="#ff9640"
       stop-opacity="0"
       id="stop46" />
  </radialGradient>
  <radialGradient
     id="j"
     cx="79.885397"
     cy="2.5094007"
     r="95.097037"
     gradientTransform="matrix(0.99003702,0,0,1.0100632,0.01585033,0.00132651)"
     fx="79.885397"
     fy="2.5094007"
     gradientUnits="userSpaceOnUse">
    <stop
       offset=".05"
       stop-color="#fff36e"
       id="stop49" />
    <stop
       offset=".55"
       stop-color="#ff9640"
       id="stop51" />
    <stop
       offset=".7"
       stop-color="#ff9640"
       id="stop53" />
  </radialGradient>
  <linearGradient
     id="k"
     x1="44.079515"
     y1="-1.571872"
     x2="59.260891"
     y2="41.354775"
     gradientTransform="matrix(1.0440816,0,0,0.95777955,0.01585033,0.00132651)"
     gradientUnits="userSpaceOnUse">
    <stop
       offset="0"
       stop-color="#b833e1"
       id="stop56" />
    <stop
       offset=".37"
       stop-color="#9059ff"
       id="stop58" />
    <stop
       offset="1"
       stop-color="#0090ed"
       id="stop60" />
  </linearGradient>
  <linearGradient
     id="l"
     x1="62.401865"
     y1="26.696894"
     x2="34.656592"
     y2="-5.2363419"
     gradientTransform="matrix(1.0440816,0,0,0.95777955,0.01585033,0.00132651)"
     gradientUnits="userSpaceOnUse">
    <stop
       offset="0"
       stop-color="#592acb"
       stop-opacity=".5"
       id="stop63" />
    <stop
       offset=".24"
       stop-color="#722291"
       stop-opacity="0"
       id="stop65" />
  </linearGradient>
  <linearGradient
     id="m"
     x1="56.588397"
     y1="15.985756"
     x2="15.834175"
     y2="83.909459"
     gradientTransform="matrix(1.0602085,0,0,0.9432107,0.01585033,0.00132651)"
     gradientUnits="userSpaceOnUse">
    <stop
       offset="0"
       stop-color="#fff36e"
       stop-opacity=".8"
       id="stop68" />
    <stop
       offset=".09"
       stop-color="#fff36e"
       stop-opacity=".7"
       id="stop70" />
    <stop
       offset=".75"
       stop-color="#fff36e"
       stop-opacity="0"
       id="stop72" />
  </linearGradient>
  <path
     d="M 71.95985,15.701327 A 39.47,39.47 0 0 0 41.60385,0.01032651 c -9.288,-0.186 -15.704,2.60499999 -19.334,4.84899999 4.857,-2.817 11.886,-4.41499999 18.04,-4.33599999 15.83,0.2 32.832,10.98100049 35.357,30.41300049 2.9,22.306 -12.637,40.923 -34.493,40.98 -24.045,0.061 -38.6699997,-21.229 -34.8469997,-40.352 a 19.735,19.735 0 0 1 0.413,-2.787 37.815,37.815 0 0 1 4.1929997,-14.018 c -2.7689997,1.433 -6.2949997,5.965 -8.0349997,10.163 a 41.355,41.355 0 0 0 -2.59799997,20.179 c 0.06,0.518 0.114,1.035 0.182,1.549 A 40.062,40.062 0 1 0 71.95985,15.701327 Z"
     id="path75"
     inkscape:connector-curvature="0"
     style="fill:url(#a)" />
  <path
     d="M 71.95985,15.701327 A 39.47,39.47 0 0 0 41.60385,0.01032651 c -9.288,-0.186 -15.704,2.60499999 -19.334,4.84899999 4.857,-2.817 11.886,-4.41499999 18.04,-4.33599999 15.83,0.2 32.832,10.98100049 35.357,30.41300049 2.9,22.306 -12.637,40.923 -34.493,40.98 -24.045,0.061 -38.6699997,-21.229 -34.8469997,-40.352 a 19.735,19.735 0 0 1 0.413,-2.787 37.815,37.815 0 0 1 4.1929997,-14.018 c -2.7689997,1.433 -6.2949997,5.965 -8.0349997,10.163 a 41.355,41.355 0 0 0 -2.59799997,20.179 c 0.06,0.518 0.114,1.035 0.182,1.549 A 40.062,40.062 0 1 0 71.95985,15.701327 Z"
     id="path77"
     inkscape:connector-curvature="0"
     style="opacity:0.67000002;fill:url(#b)" />
  <path
     d="M 71.95985,15.701327 A 39.47,39.47 0 0 0 41.60385,0.01032651 c -9.288,-0.186 -15.704,2.60499999 -19.334,4.84899999 4.857,-2.817 11.886,-4.41499999 18.04,-4.33599999 15.83,0.2 32.832,10.98100049 35.357,30.41300049 2.9,22.306 -12.637,40.923 -34.493,40.98 -24.045,0.061 -38.6699997,-21.229 -34.8469997,-40.352 a 19.735,19.735 0 0 1 0.413,-2.787 37.815,37.815 0 0 1 4.1929997,-14.018 c -2.7689997,1.433 -6.2949997,5.965 -8.0349997,10.163 a 41.355,41.355 0 0 0 -2.59799997,20.179 c 0.06,0.518 0.114,1.035 0.182,1.549 A 40.062,40.062 0 1 0 71.95985,15.701327 Z"
     id="path79"
     inkscape:connector-curvature="0"
     style="fill:url(#c)" />
  <path
     d="M 71.95985,15.701327 A 39.47,39.47 0 0 0 41.60385,0.01032651 c -9.288,-0.186 -15.704,2.60499999 -19.334,4.84899999 4.857,-2.817 11.886,-4.41499999 18.04,-4.33599999 15.83,0.2 32.832,10.98100049 35.357,30.41300049 2.9,22.306 -12.637,40.923 -34.493,40.98 -24.045,0.061 -38.6699997,-21.229 -34.8469997,-40.352 a 19.735,19.735 0 0 1 0.413,-2.787 37.815,37.815 0 0 1 4.1929997,-14.018 c -2.7689997,1.433 -6.2949997,5.965 -8.0349997,10.163 a 41.355,41.355 0 0 0 -2.59799997,20.179 c 0.06,0.518 0.114,1.035 0.182,1.549 A 40.062,40.062 0 1 0 71.95985,15.701327 Z"
     id="path81"
     inkscape:connector-curvature="0"
     style="fill:url(#d)" />
  <path
     d="M 71.95985,15.701327 A 39.47,39.47 0 0 0 41.60385,0.01032651 c -9.288,-0.186 -15.704,2.60499999 -19.334,4.84899999 4.857,-2.817 11.886,-4.41499999 18.04,-4.33599999 15.83,0.2 32.832,10.98100049 35.357,30.41300049 2.9,22.306 -12.637,40.923 -34.493,40.98 -24.045,0.061 -38.6699997,-21.229 -34.8469997,-40.352 a 19.735,19.735 0 0 1 0.413,-2.787 37.815,37.815 0 0 1 4.1929997,-14.018 c -2.7689997,1.433 -6.2949997,5.965 -8.0349997,10.163 a 41.355,41.355 0 0 0 -2.59799997,20.179 c 0.06,0.518 0.114,1.035 0.182,1.549 A 40.062,40.062 0 1 0 71.95985,15.701327 Z"
     id="path83"
     inkscape:connector-curvature="0"
     style="fill:url(#e)" />
  <path
     d="m 76.64085,29.827327 c -2.251,-20.3080005 -20.362,-29.43600049 -36.331,-29.30400049 -6.155,0.05 -13.183,1.51899999 -18.04,4.33599999 a 19.7,19.7 0 0 0 -3.56,2.7 c 0.129,-0.107 0.514,-0.424 1.152,-0.862 l 0.063,-0.043 0.056,-0.038 a 26.655,26.655 0 0 1 7.692,-3.572 43.5,43.5 0 0 1 13.183,-1.543 33.254,33.254 0 0 1 31.25,31.9930005 c 0.367,13.207 -10.442,23.737 -22.902,24.347 -9.062,0.444 -17.6,-3.941 -21.77,-12.713 a 21.68,21.68 0 0 1 -1.964,-6.333 c -1.976,-13.35 6.989,-24.735 15.21,-27.554 -4.435,-3.8740005 -15.548,-3.6110005 -23.819,2.474 -5.956,4.382 -9.8199997,11.049 -11.0999997,19 a 32.945,32.945 0 0 0 2.34,18 35.3,35.3 0 0 0 30.0889997,21.443 q 1.489,0.114 2.984,0.113 c 26.462,0 37.942,-20.087 35.467,-42.444 z"
     id="path85"
     inkscape:connector-curvature="0"
     style="fill:url(#f)" />
  <path
     d="m 76.64085,29.827327 c -2.251,-20.3080005 -20.362,-29.43600049 -36.331,-29.30400049 -6.155,0.05 -13.183,1.51899999 -18.04,4.33599999 a 19.7,19.7 0 0 0 -3.56,2.7 c 0.129,-0.107 0.514,-0.424 1.152,-0.862 l 0.063,-0.043 0.056,-0.038 a 26.655,26.655 0 0 1 7.692,-3.572 43.5,43.5 0 0 1 13.183,-1.543 33.254,33.254 0 0 1 31.25,31.9930005 c 0.367,13.207 -10.442,23.737 -22.902,24.347 -9.062,0.444 -17.6,-3.941 -21.77,-12.713 a 21.68,21.68 0 0 1 -1.964,-6.333 c -1.976,-13.35 6.989,-24.735 15.21,-27.554 -4.435,-3.8740005 -15.548,-3.6110005 -23.819,2.474 -5.956,4.382 -9.8199997,11.049 -11.0999997,19 a 32.945,32.945 0 0 0 2.34,18 35.3,35.3 0 0 0 30.0889997,21.443 q 1.489,0.114 2.984,0.113 c 26.462,0 37.942,-20.087 35.467,-42.444 z"
     id="path87"
     inkscape:connector-curvature="0"
     style="fill:url(#g)" />
  <path
     d="m 76.64085,29.827327 c -2.251,-20.3080005 -20.362,-29.43600049 -36.331,-29.30400049 -6.155,0.05 -13.183,1.51899999 -18.04,4.33599999 a 19.7,19.7 0 0 0 -3.56,2.7 c 0.129,-0.107 0.514,-0.424 1.152,-0.862 l 0.063,-0.043 0.056,-0.038 a 26.655,26.655 0 0 1 7.692,-3.572 43.5,43.5 0 0 1 13.183,-1.543 33.254,33.254 0 0 1 31.25,31.9930005 c 0.367,13.207 -10.442,23.737 -22.902,24.347 -9.062,0.444 -17.6,-3.941 -21.77,-12.713 a 21.68,21.68 0 0 1 -1.964,-6.333 c -1.976,-13.35 6.989,-24.735 15.21,-27.554 -4.435,-3.8740005 -15.548,-3.6110005 -23.819,2.474 -5.956,4.382 -9.8199997,11.049 -11.0999997,19 a 32.945,32.945 0 0 0 2.34,18 35.3,35.3 0 0 0 30.0889997,21.443 q 1.489,0.114 2.984,0.113 c 26.462,0 37.942,-20.087 35.467,-42.444 z"
     id="path89"
     inkscape:connector-curvature="0"
     style="opacity:0.52999998;fill:url(#h)" />
  <path
     d="m 76.64085,29.827327 c -2.251,-20.3080005 -20.362,-29.43600049 -36.331,-29.30400049 -6.155,0.05 -13.183,1.51899999 -18.04,4.33599999 a 19.7,19.7 0 0 0 -3.56,2.7 c 0.129,-0.107 0.514,-0.424 1.152,-0.862 l 0.063,-0.043 0.056,-0.038 a 26.655,26.655 0 0 1 7.692,-3.572 43.5,43.5 0 0 1 13.183,-1.543 33.254,33.254 0 0 1 31.25,31.9930005 c 0.367,13.207 -10.442,23.737 -22.902,24.347 -9.062,0.444 -17.6,-3.941 -21.77,-12.713 a 21.68,21.68 0 0 1 -1.964,-6.333 c -1.976,-13.35 6.989,-24.735 15.21,-27.554 -4.435,-3.8740005 -15.548,-3.6110005 -23.819,2.474 -5.956,4.382 -9.8199997,11.049 -11.0999997,19 a 32.945,32.945 0 0 0 2.34,18 35.3,35.3 0 0 0 30.0889997,21.443 q 1.489,0.114 2.984,0.113 c 26.462,0 37.942,-20.087 35.467,-42.444 z"
     id="path91"
     inkscape:connector-curvature="0"
     style="opacity:0.52999998;fill:url(#i)" />
  <path
     d="m 49.20385,57.841327 c 17.1,-1.04 24.42,-15.2 24.879,-25.245 0.716,-15.695 -8.595,-32.61500049 -33.227,-31.0950005 a 43.5,43.5 0 0 0 -13.183,1.546 28.855,28.855 0 0 0 -7.692,3.572 l -0.056,0.038 -0.063,0.043 q -0.574,0.4 -1.123,0.842 a 33.482,33.482 0 0 1 20.977,-3.936 c 14.142,1.856 27.072,12.8570005 27.072,27.3730005 0,11.169 -8.631,19.7 -18.738,19.087 -15.015,-0.9 -18.8,-16.3 -10.989,-22.954 -2.106,-0.453 -6.064,0.435 -8.82,4.555 -2.473,3.7 -2.333,9.41 -0.807,13.461 a 22.118,22.118 0 0 0 21.77,12.713 z"
     id="path93"
     inkscape:connector-curvature="0"
     style="fill:url(#j)" />
  <path
     d="m 72.03185,18.727327 a 22.458,22.458 0 0 0 -4.882,-8.144 30.224,30.224 0 0 0 -9.094,-6.4930005 40.518,40.518 0 0 0 -8.94,-3.16899999 39.834,39.834 0 0 0 -16.565,-0.1 c -5.683,1.19999999 -10.68,3.65899999 -13.841,6.73299999 a 32.1,32.1 0 0 1 8.031,-3.2 33.565,33.565 0 0 1 31.173,8.1000005 27.01,27.01 0 0 1 4.329,5.3 c 4.895,7.959 4.432,17.965 0.615,23.866 -2.835,4.384 -8.907,8.5 -14.572,8.452 a 23.629,23.629 0 0 0 21.71,-10.871 c 3.989,-6.224 4.125,-14.145 2.036,-20.474 z"
     id="path95"
     inkscape:connector-curvature="0"
     style="fill:url(#k)" />
  <path
     d="m 72.03185,18.727327 a 22.458,22.458 0 0 0 -4.882,-8.144 30.224,30.224 0 0 0 -9.094,-6.4930005 40.518,40.518 0 0 0 -8.94,-3.16899999 39.834,39.834 0 0 0 -16.565,-0.1 c -5.683,1.19999999 -10.68,3.65899999 -13.841,6.73299999 a 32.1,32.1 0 0 1 8.031,-3.2 33.565,33.565 0 0 1 31.173,8.1000005 27.01,27.01 0 0 1 4.329,5.3 c 4.895,7.959 4.432,17.965 0.615,23.866 -2.835,4.384 -8.907,8.5 -14.572,8.452 a 23.629,23.629 0 0 0 21.71,-10.871 c 3.989,-6.224 4.125,-14.145 2.036,-20.474 z"
     id="path97"
     inkscape:connector-curvature="0"
     style="fill:url(#l)" />
  <path
     d="m 71.95985,15.701327 a 39.958,39.958 0 0 0 -3.482,-3.982 31.342,31.342 0 0 0 -3.177,-2.9260005 24.393,24.393 0 0 1 1.849,1.7900005 22.466,22.466 0 0 1 4.882,8.144 c 2.089,6.329 1.953,14.25 -2.036,20.471 a 23.539,23.539 0 0 1 -20.855,10.895 c -0.361,0 -0.725,0 -1.091,-0.027 -15.015,-0.9 -18.8,-16.3 -10.988,-22.954 -2.107,-0.453 -6.065,0.435 -8.821,4.555 -2.473,3.7 -2.333,9.41 -0.807,13.461 a 21.679,21.679 0 0 1 -1.963,-6.333 c -1.977,-13.35 6.988,-24.735 15.209,-27.554 -4.435,-3.8740005 -15.548,-3.6110005 -23.819,2.474 a 27.845,27.845 0 0 0 -10.0869997,14.6 38.5,38.5 0 0 1 4.1589997,-13.553 c -2.7689997,1.433 -6.2949997,5.965 -8.0349997,10.163 a 41.355,41.355 0 0 0 -2.59799997,20.176 c 0.06,0.518 0.114,1.035 0.182,1.549 A 40.062,40.062 0 1 0 71.95985,15.701327 Z"
     id="path101"
     inkscape:connector-curvature="0"
     style="fill:url(#m)" />
</svg>
