<?xml version="1.0" encoding="UTF-8" standalone="no"?>
<svg
   xmlns:dc="http://purl.org/dc/elements/1.1/"
   xmlns:cc="http://creativecommons.org/ns#"
   xmlns:rdf="http://www.w3.org/1999/02/22-rdf-syntax-ns#"
   xmlns:svg="http://www.w3.org/2000/svg"
   xmlns="http://www.w3.org/2000/svg"
   xmlns:xlink="http://www.w3.org/1999/xlink"
   version="0.0"
   viewBox="0 0 124.10456 124.10457"
   height="124.10457mm"
   width="124.10457mm">
  <defs>
    <linearGradient
       id="linearGradient2344">
      <stop
         style="stop-color:#0021ca;stop-opacity:1"
         offset="0"
         id="stop2340" />
      <stop
         style="stop-color:#6c82ff;stop-opacity:1"
         offset="1"
         id="stop2342" />
    </linearGradient>
    <linearGradient
       id="linearGradient2321">
      <stop
         id="stop2317"
         offset="0"
         style="stop-color:#0020be;stop-opacity:1" />
      <stop
         id="stop2319"
         offset="1"
         style="stop-color:#5d78ff;stop-opacity:1" />
    </linearGradient>
    <marker>
      <path />
    </marker>
    <marker>
      <path />
    </marker>
    <marker
       style="overflow:visible"
       id="marker1574"
       refX="0"
       refY="0"
       orient="auto">
      <path
         transform="matrix(0.8,0,0,0.8,10,0)"
         style="fill:#000000;fill-opacity:1;fill-rule:evenodd;stroke:#000000;stroke-width:1.00000003pt;stroke-opacity:1"
         d="M 0,0 5,-5 -12.5,0 5,5 Z"
         id="path1572" />
    </marker>
    <marker
       style="overflow:visible"
       id="marker1435"
       refX="0"
       refY="0"
       orient="auto">
      <path
         transform="matrix(0.2,0,0,0.2,1.2,0)"
         style="fill:#000000;fill-opacity:1;fill-rule:evenodd;stroke:#000000;stroke-width:1.00000003pt;stroke-opacity:1"
         d="M 0,0 5,-5 -12.5,0 5,5 Z"
         id="path1433" />
    </marker>
    <marker
       style="overflow:visible"
       id="Arrow1Sstart"
       refX="0"
       refY="0"
       orient="auto">
      <path
         transform="matrix(0.2,0,0,0.2,1.2,0)"
         style="fill:#000000;fill-opacity:1;fill-rule:evenodd;stroke:#000000;stroke-width:1.00000003pt;stroke-opacity:1"
         d="M 0,0 5,-5 -12.5,0 5,5 Z"
         id="path1012" />
    </marker>
    <marker
       orient="auto"
       refY="0"
       refX="0"
       id="DistanceStart"
       style="overflow:visible">
      <g
         style="fill:#000000;fill-opacity:1;stroke:#000000;stroke-opacity:1"
         id="g2300">
        <path
           id="path2306"
           d="M 0,0 H 2"
           style="fill:#000000;fill-opacity:1;stroke:#000000;stroke-width:1.14999998;stroke-linecap:square;stroke-opacity:1" />
        <path
           id="path2302"
           d="M 0,0 13,4 9,0 13,-4 Z"
           style="fill:#000000;fill-opacity:1;fill-rule:evenodd;stroke:#000000;stroke-opacity:1" />
        <path
           id="path2304"
           d="M 0,-4 V 40"
           style="fill:#000000;fill-opacity:1;stroke:#000000;stroke-width:1;stroke-linecap:square;stroke-opacity:1" />
      </g>
    </marker>
    <marker
       style="overflow:visible"
       id="Arrow1Lstart"
       refX="0"
       refY="0"
       orient="auto">
      <path
         transform="matrix(0.8,0,0,0.8,10,0)"
         style="fill:#000000;fill-opacity:1;fill-rule:evenodd;stroke:#000000;stroke-width:1.00000003pt;stroke-opacity:1"
         d="M 0,0 5,-5 -12.5,0 5,5 Z"
         id="path1000" />
    </marker>
    <linearGradient
       gradientUnits="userSpaceOnUse"
       y2="185.28906"
       x2="443.60504"
       y1="284.28906"
       x1="342.60547"
       id="linearGradient2323"
       xlink:href="#linearGradient2321" />
    <linearGradient
       gradientUnits="userSpaceOnUse"
       y2="591.8457"
       x2="339.54691"
       y1="490.8457"
       x1="440.59131"
       id="linearGradient2331"
       xlink:href="#linearGradient2344" />
    <linearGradient
       y2="591.8457"
       x2="339.54691"
       y1="490.8457"
       x1="440.59131"
       gradientUnits="userSpaceOnUse"
       id="linearGradient2352"
       xlink:href="#linearGradient2344" />
    <linearGradient
       y2="185.28906"
       x2="443.60504"
       y1="284.28906"
       x1="342.60547"
       gradientUnits="userSpaceOnUse"
       id="linearGradient2354"
       xlink:href="#linearGradient2321" />
  </defs>
  <g
     transform="translate(-61.077338,-72.896314)"
     id="layer1">
    <g
       transform="translate(2.1166666)"
       id="g2350">
      <path
         style="opacity:1;fill:#5d78ff;fill-opacity:1;fill-rule:nonzero;stroke:none;stroke-width:36.84435654;stroke-linecap:round;stroke-linejoin:round;stroke-miterlimit:4;stroke-dasharray:none;stroke-dashoffset:0;stroke-opacity:1;paint-order:normal"
         d="M 309.60547,156.03906 172.04688,293.5957 c -10e-4,10e-4 -0.003,0.003 -0.004,0.004 -1.00247,1.00304 -1.88069,2.08406 -2.63281,3.2207 -0.75307,1.13817 -1.38074,2.33254 -1.88282,3.56641 -0.50203,1.23383 -0.87794,2.5056 -1.1289,3.79687 -0.25096,1.29132 -0.37696,2.60168 -0.37696,3.91211 0,1.31044 0.126,2.62084 0.37696,3.91211 0.25103,1.29132 0.62687,2.56497 1.1289,3.79883 0.50208,1.23387 1.12975,2.42828 1.88282,3.56641 0.7531,1.13813 1.63261,2.21855 2.63672,3.22265 l 144,144 152.05859,-152.05664 z"
         transform="matrix(0.26458333,0,0,0.26458333,17.150846,31.610984)"
         id="rect2160" />
      <path
         style="opacity:1;fill:#6c84ff;fill-opacity:1;fill-rule:nonzero;stroke:none;stroke-width:36.84435654;stroke-linecap:round;stroke-linejoin:round;stroke-miterlimit:4;stroke-dasharray:none;stroke-dashoffset:0;stroke-opacity:1;paint-order:normal"
         d="m 468.10547,314.53906 -14.5,14.5 -123.05859,123.0586 -14.5,14.49804 14.5,14.5 129.5,129.5 14.5,14.5 14.5,-14.5 123.05859,-123.05859 c 1.00367,-1.00382 1.88194,-2.08298 2.63476,-3.2207 0.7531,-1.13814 1.38075,-2.3345 1.88282,-3.56836 0.50206,-1.23386 0.87982,-2.50559 1.13086,-3.79688 0.25103,-1.29129 0.375,-2.60167 0.375,-3.91211 0,-1.31044 -0.12397,-2.62081 -0.375,-3.91211 -0.25104,-1.29129 -0.6288,-2.56301 -1.13086,-3.79687 -0.50207,-1.23386 -1.12972,-2.43022 -1.88282,-3.56836 -0.75309,-1.13814 -1.63064,-2.21853 -2.63476,-3.22266 l -129.5,-129.5 z"
         transform="matrix(0.26458333,0,0,0.26458333,17.150846,31.610984)"
         id="path2236" />
      <path
         style="opacity:1;fill:url(#linearGradient2352);fill-opacity:1;fill-rule:nonzero;stroke:none;stroke-width:58.33576965;stroke-linecap:round;stroke-linejoin:round;stroke-miterlimit:4;stroke-dasharray:none;stroke-dashoffset:0;stroke-opacity:1;paint-order:normal"
         d="M 316.19531,466.5957 175.70312,610.70898 c -0.68324,0.76225 -1.30013,1.56235 -1.8496,2.39258 -0.75311,1.13817 -1.38071,2.33254 -1.88282,3.56641 -0.55724,1.44139 -0.47308,2.715 0.0723,3.94726 0.61393,1.38721 1.45142,1.88081 2.67578,2.40235 1.22748,0.51745 2.51425,0.91928 3.85156,1.1914 1.05357,0.21457 2.13895,0.34559 3.2461,0.39258 l 292.73047,0.49414 z"
         transform="matrix(0.26458333,0,0,0.26458333,17.150846,31.610984)"
         id="path2177" />
      <path
         style="opacity:1;fill:url(#linearGradient2354);fill-opacity:1;fill-rule:nonzero;stroke:none;stroke-width:58.33576965;stroke-linecap:round;stroke-linejoin:round;stroke-miterlimit:4;stroke-dasharray:none;stroke-dashoffset:0;stroke-opacity:1;paint-order:normal"
         d="m 309.60547,156.03906 158.35156,158.5 140.70313,-144.33008 c 0.60419,-0.69397 1.15889,-1.41551 1.65429,-2.16406 0.75311,-1.13815 1.38071,-2.33252 1.88282,-3.5664 0.55665,-1.44016 0.53378,-2.54264 -0.01,-3.77344 -0.61295,-1.38797 -1.51387,-2.05462 -2.73828,-2.57617 -1.22748,-0.51746 -2.51425,-0.91917 -3.85156,-1.19141 -1.22813,-0.25002 -2.49978,-0.3831 -3.79883,-0.4043 z"
         transform="matrix(0.26458333,0,0,0.26458333,17.150846,31.610984)"
         id="path2177-8" />
    </g>
  </g>
</svg>
