<svg
   xmlns:dc="http://purl.org/dc/elements/1.1/"
   xmlns:cc="http://creativecommons.org/ns#"
   xmlns:rdf="http://www.w3.org/1999/02/22-rdf-syntax-ns#"
   xmlns:svg="http://www.w3.org/2000/svg"
   xmlns="http://www.w3.org/2000/svg"
   version="0.0"
   viewBox="0 0 199.96505 199.96506"
   height="199.96506mm"
   width="199.96506mm">

  <g
     transform="translate(-17.150846,-31.610984)"
     id="layer1">
    <g
       id="g1832">
      <path
         style="opacity:1;fill:#ffffff;fill-opacity:1;fill-rule:nonzero;stroke:none;stroke-width:7.56500006;stroke-linecap:round;stroke-linejoin:round;stroke-miterlimit:4;stroke-dasharray:none;stroke-dashoffset:0;stroke-opacity:1;paint-order:normal"
         id="path1797"
         d="m 184.21631,179.41533 c -6.2933,9.5817 -56.82874,35.00158 -68.27339,34.34227 -11.44464,-0.65931 -58.726627,-31.71435 -63.877967,-41.95535 -5.151341,-10.24101 -1.897887,-66.71593 4.395416,-76.297628 6.293303,-9.581696 56.828741,-35.001581 68.273391,-34.342269 11.44464,0.659313 58.72663,31.714346 63.87797,41.955357 5.15134,10.24101 1.89789,66.71592 -4.39542,76.29762 z"
         transform="matrix(1.3044502,-0.07560832,0.07560832,1.3044502,-50.362933,-38.420783)" />
      <path
         style="fill:#5d78ff;fill-opacity:1;stroke:none;stroke-width:0.26458332px;stroke-linecap:butt;stroke-linejoin:miter;stroke-opacity:1"
         d="m 76.118825,67.499137 c 3.41285,20.891037 14.1169,38.207533 26.818535,45.194123 6.9672,3.83235 16.9839,4.47971 25.75088,8.9855 7.17723,3.68874 13.7049,10.04116 16.4114,15.55667 0.99674,-15.34096 -23.49779,-27.64654 -44.8138,-43.114662 C 88.124165,85.295559 83.140475,77.450251 76.118825,67.499137 Z m -18.70997,23.623365 c 0,0 4.37757,11.718428 11.00759,18.475338 6.53615,6.66124 28.490766,21.77904 28.490766,21.77904 0,0 -7.081676,-1.36508 -12.370816,-3.89021 -4.47524,-2.13657 -16.92196,-10.09499 -16.92196,-10.09499 0,0 6.13869,9.48491 11.52333,13.61313 7.84452,6.01414 28.164185,16.81396 28.164185,16.81396 0,0 -10.544619,-2.84327 -15.438865,-4.69016 -5.12212,-1.93287 -14.61048,-6.6492 -14.61048,-6.6492 0,0 5.91758,8.47023 9.86865,11.66595 4.61639,3.73384 15.833675,9.12296 15.833675,9.12296 0,0 -4.928283,-0.39599 -7.250735,-0.87747 -2.84323,-0.58945 -8.24601,-2.33526 -8.24601,-2.33526 0,0 9.393126,9.42142 15.447135,12.29641 5.82796,2.76764 19.13733,3.76721 19.13733,3.76721 0,0 -1.15583,1.00459 -3.22203,1.38855 -1.44532,0.26858 -4.71547,0.50178 -4.71547,0.50178 0,0 -5.05575,8.24838 -11.72797,13.28807 -5.498129,4.15285 -19.076885,8.82324 -19.076885,8.82324 0,0 29.115205,7.79004 58.057975,-7.68118 16.89761,-9.03256 15.55162,-36.72244 26.57357,-39.82342 2.6814,-0.75439 8.53953,-0.87643 8.53953,-0.87643 l -3.87418,-2.07894 c 0,0 -2.24382,-6.07261 -7.17838,-7.11843 -12.78017,-2.7086 -20.79201,6.36292 -20.79201,6.36292 0,0 -2.78184,-10.83965 -14.40274,-17.59737 -6.46417,-3.75901 -15.84943,-5.68521 -25.00209,-8.57519 C 94.124495,113.22874 83.113215,109.006 76.148795,104.89684 71.036165,101.88028 57.408855,91.122502 57.408855,91.122502 Z"
         id="path1814" />
    </g>
  </g>
</svg>
