<?xml version="1.0" encoding="UTF-8"?>
<!-- Created with Inkscape (http://www.inkscape.org/) -->
<svg width="124.1mm" height="124.1mm" version="0.0" viewBox="0 0 124.1 124.1" xmlns="http://www.w3.org/2000/svg" xmlns:cc="http://creativecommons.org/ns#" xmlns:dc="http://purl.org/dc/elements/1.1/" xmlns:rdf="http://www.w3.org/1999/02/22-rdf-syntax-ns#" xmlns:xlink="http://www.w3.org/1999/xlink">
 <defs>
  <linearGradient id="linearGradient2352" x1="440.59" x2="339.55" y1="490.85" y2="591.85" gradientUnits="userSpaceOnUse">
   <stop stop-color="#0021ca" offset="0"/>
   <stop stop-color="#6c82ff" offset="1"/>
  </linearGradient>
  <linearGradient id="linearGradient2354" x1="342.61" x2="443.61" y1="284.29" y2="185.29" gradientUnits="userSpaceOnUse">
   <stop stop-color="#0020be" offset="0"/>
   <stop stop-color="#5d78ff" offset="1"/>
  </linearGradient>
 </defs>

 <g transform="translate(-61.077 -72.896)">
  <g transform="translate(2.1167)">
   <path transform="matrix(.26458 0 0 .26458 17.151 31.611)" d="m309.61 156.04-137.56 137.56c-1.0025 1.003-1.8807 2.0841-2.6328 3.2207-0.75307 1.1382-1.3807 2.3325-1.8828 3.5664-0.50203 1.2338-0.87794 2.5056-1.1289 3.7969-0.25096 1.2913-0.37696 2.6017-0.37696 3.9121 0 1.3104 0.126 2.6208 0.37696 3.9121 0.25103 1.2913 0.62687 2.565 1.1289 3.7988 0.50208 1.2339 1.1298 2.4283 1.8828 3.5664 0.7531 1.1381 1.6326 2.2186 2.6367 3.2226l144 144 152.06-152.06z" fill="#5d78ff" style="paint-order:normal"/>
   <path transform="matrix(.26458 0 0 .26458 17.151 31.611)" d="m468.11 314.54-137.56 137.56-14.5 14.498 158.5 158.5 137.56-137.56c1.0037-1.0038 1.8819-2.083 2.6348-3.2207 0.7531-1.1381 1.3808-2.3345 1.8828-3.5684 0.50206-1.2339 0.87982-2.5056 1.1309-3.7969 0.25103-1.2913 0.375-2.6017 0.375-3.9121s-0.12397-2.6208-0.375-3.9121c-0.25104-1.2913-0.6288-2.563-1.1309-3.7969-0.50207-1.2339-1.1297-2.4302-1.8828-3.5684-0.75309-1.1381-1.6306-2.2185-2.6348-3.2227l-129.5-129.5z" fill="#6c84ff" style="paint-order:normal"/>
   <path transform="matrix(.26458 0 0 .26458 17.151 31.611)" d="m316.2 466.6-140.49 144.11c-0.68324 0.76225-1.3001 1.5624-1.8496 2.3926-0.75311 1.1382-1.3807 2.3325-1.8828 3.5664-0.55724 1.4414-0.47308 2.715 0.0723 3.9473 0.61393 1.3872 1.4514 1.8808 2.6758 2.4024 1.2275 0.51745 2.5142 0.91928 3.8516 1.1914 1.0536 0.21457 2.139 0.34559 3.2461 0.39258l292.73 0.49414z" fill="url(#linearGradient2352)" style="paint-order:normal"/>
   <path transform="matrix(.26458 0 0 .26458 17.151 31.611)" d="m309.61 156.04 158.35 158.5 140.7-144.33c0.60419-0.69397 1.1589-1.4155 1.6543-2.1641 0.75311-1.1382 1.3807-2.3325 1.8828-3.5664 0.55665-1.4402 0.53378-2.5426-0.01-3.7734-0.61295-1.388-1.5139-2.0546-2.7383-2.5762-1.2275-0.51746-2.5142-0.91917-3.8516-1.1914-1.2281-0.25002-2.4998-0.3831-3.7988-0.4043z" fill="url(#linearGradient2354)" style="paint-order:normal"/>
  </g>
 </g>
</svg>
