<svg xmlns="http://www.w3.org/2000/svg" width="151.53mm" height="135.93mm" viewBox="0 0 429.52 385.32">
  <title>sale</title>
  <g style="opacity: 0.05">
    <path d="M31.24,346a11.82,11.82,0,0,1-3.86-4.93A17,17,0,0,1,26,334.22a17.24,17.24,0,0,1,1.36-7,12.07,12.07,0,0,1,3.86-5A9.47,9.47,0,0,1,37,320.47a9.52,9.52,0,0,1,8,3.92,15.66,15.66,0,0,1,3,9.76A16.52,16.52,0,0,1,46.57,341a12.15,12.15,0,0,1-3.89,5A9.22,9.22,0,0,1,37,347.83,9.58,9.58,0,0,1,31.24,346Zm9.57-5.83a11.85,11.85,0,0,0,1.34-6,12,12,0,0,0-1.34-6.05,4.26,4.26,0,0,0-7.56,0,11.85,11.85,0,0,0-1.33,6,12,12,0,0,0,1.33,6.05,4.26,4.26,0,0,0,7.56,0Zm-5.68,30.67a2.5,2.5,0,0,1-1-2,4.06,4.06,0,0,1,.51-1.8l29.59-44.71A2.91,2.91,0,0,1,66.63,321a3.26,3.26,0,0,1,2.05.79,2.51,2.51,0,0,1,1,2,3.38,3.38,0,0,1-.58,1.8L39.55,370.29a2.91,2.91,0,0,1-2.37,1.37A3.17,3.17,0,0,1,35.13,370.87Zm26.6-.51a12,12,0,0,1-3.93-4.89,16.5,16.5,0,0,1-1.4-6.84,17.21,17.21,0,0,1,1.37-6.95,12,12,0,0,1,3.85-5,10,10,0,0,1,11.59,0A11.81,11.81,0,0,1,77,351.64a17.32,17.32,0,0,1,1.33,6.92A16.5,16.5,0,0,1,77,365.4a12.46,12.46,0,0,1-3.89,4.93,9.29,9.29,0,0,1-5.65,1.83A9.54,9.54,0,0,1,61.73,370.36Zm9.43-5.76a12.12,12.12,0,0,0,1.3-6,12.32,12.32,0,0,0-1.33-6.09,4.17,4.17,0,0,0-7.49,0,14.24,14.24,0,0,0,0,12.06,4.14,4.14,0,0,0,3.78,2.31A4.08,4.08,0,0,0,71.16,364.6Z" transform="translate(-26.02 13.16)" style="fill: #fff"/>
  </g>
  <circle cx="193.51" cy="186.83" r="34.63" style="fill: #fff;opacity: 0.05"/>
  <g style="opacity: 0.07">
    <path d="M231.09,183.63a12.31,12.31,0,0,1-5.78,4.47l.78,3.81a2.2,2.2,0,0,1-1.79,2.71,2.17,2.17,0,0,1-1.71-.31,2.19,2.19,0,0,1-1-1.49l-.76-3.72a16.14,16.14,0,0,1-5.18-.16,14.94,14.94,0,0,1-4.81-2,2.5,2.5,0,0,1-1.38-1.72,2.33,2.33,0,0,1,1.75-2.67,2.06,2.06,0,0,1,1.47.24,13.51,13.51,0,0,0,3.56,1.58,11.89,11.89,0,0,0,3.7.37l-2.22-10.87a15.11,15.11,0,0,1-7.58-1.85,8.08,8.08,0,0,1-3.65-5.6,8.26,8.26,0,0,1,1.31-6.66,11.89,11.89,0,0,1,6.15-4.32l-.5-2.44a2.16,2.16,0,0,1,.33-1.76,2.29,2.29,0,0,1,1.51-1,2.09,2.09,0,0,1,1.68.31,2.3,2.3,0,0,1,1,1.5l.51,2.49a15.77,15.77,0,0,1,4.33.34,11.26,11.26,0,0,1,3.57,1.43,2.76,2.76,0,0,1,1.5,1.8,2.18,2.18,0,0,1-.33,1.63,2.07,2.07,0,0,1-1.39,1,1.61,1.61,0,0,1-1.16-.15,9,9,0,0,0-2.53-1.1,12.26,12.26,0,0,0-3.08-.45l2.13,10.44a15.72,15.72,0,0,1,7.4,1.89q2.64,1.65,3.47,5.74A8.18,8.18,0,0,1,231.09,183.63Zm-18.26-15.49a9.72,9.72,0,0,0,4,1.17l-1.95-9.5a6.74,6.74,0,0,0-3.22,2.32,4.26,4.26,0,0,0,1.18,6Zm14.42,13.14a3.81,3.81,0,0,0,.66-3,4.53,4.53,0,0,0-1.77-2.75,8.42,8.42,0,0,0-3.67-1.33l1.93,9.45A7.17,7.17,0,0,0,227.25,181.28Z" transform="translate(-26.02 13.16)"/>
  </g>
  <circle cx="394.89" cy="34.63" r="34.63" style="fill: #fff;opacity: 0"/>
  <g style="opacity: 0">
    <path d="M432.47,31.43a12.22,12.22,0,0,1-5.77,4.47l.77,3.81a2.2,2.2,0,0,1-.3,1.75,2.26,2.26,0,0,1-1.49,1,2.22,2.22,0,0,1-1.71-.32,2.19,2.19,0,0,1-1-1.49l-.76-3.71a16.43,16.43,0,0,1-5.18-.17,15,15,0,0,1-4.81-2,2.56,2.56,0,0,1-1.38-1.72,2.21,2.21,0,0,1,.34-1.67,2.14,2.14,0,0,1,1.42-1,2,2,0,0,1,1.47.23,13.45,13.45,0,0,0,3.55,1.58,11.62,11.62,0,0,0,3.7.37l-2.22-10.86a15.21,15.21,0,0,1-7.58-1.86,8.07,8.07,0,0,1-3.64-5.6,8.27,8.27,0,0,1,1.3-6.66,11.89,11.89,0,0,1,6.15-4.32l-.5-2.44a2.23,2.23,0,0,1,.33-1.76,2.32,2.32,0,0,1,1.51-1,2.12,2.12,0,0,1,1.69.32,2.26,2.26,0,0,1,.94,1.49l.51,2.49a16.17,16.17,0,0,1,4.33.34,11.26,11.26,0,0,1,3.57,1.43,2.76,2.76,0,0,1,1.5,1.8,2.09,2.09,0,0,1-.33,1.63,2.11,2.11,0,0,1-1.39,1,1.61,1.61,0,0,1-1.16-.16,9.13,9.13,0,0,0-2.53-1.1,12.26,12.26,0,0,0-3.08-.45l2.14,10.44a15.55,15.55,0,0,1,7.39,1.9q2.64,1.63,3.48,5.73A8.18,8.18,0,0,1,432.47,31.43ZM414.21,15.94a9.72,9.72,0,0,0,4,1.17l-1.94-9.5A6.77,6.77,0,0,0,413,9.93a4,4,0,0,0-.68,3.23A4,4,0,0,0,414.21,15.94Zm14.42,13.14a3.76,3.76,0,0,0,.66-3,4.52,4.52,0,0,0-1.76-2.75A8.46,8.46,0,0,0,423.85,22l1.93,9.45A7.17,7.17,0,0,0,428.63,29.08Z" transform="translate(-26.02 13.16)"/>
  </g>
</svg>
