<?xml version="1.0" encoding="UTF-8" standalone="no"?>
<!-- Created with Inkscape (http://www.inkscape.org/) -->

<svg
   xmlns:dc="http://purl.org/dc/elements/1.1/"
   xmlns:cc="http://creativecommons.org/ns#"
   xmlns:rdf="http://www.w3.org/1999/02/22-rdf-syntax-ns#"
   xmlns:svg="http://www.w3.org/2000/svg"
   xmlns="http://www.w3.org/2000/svg"
   xmlns:sodipodi="http://sodipodi.sourceforge.net/DTD/sodipodi-0.dtd"
   xmlns:inkscape="http://www.inkscape.org/namespaces/inkscape"
   width="300mm"
   height="300mm"
   viewBox="0 0 300 300"
   version="1.1"
   id="svg1374"
   inkscape:version="0.92.4 (5da689c313, 2019-01-14)"
   sodipodi:docname="back-circle-line.svg">
  <defs
     id="defs1368" />
  <sodipodi:namedview
     id="base"
     pagecolor="#ffffff"
     bordercolor="#666666"
     borderopacity="1.0"
     inkscape:pageopacity="0.0"
     inkscape:pageshadow="2"
     inkscape:zoom="0.49497475"
     inkscape:cx="227.67136"
     inkscape:cy="463.10472"
     inkscape:document-units="mm"
     inkscape:current-layer="layer1"
     showgrid="false"
     inkscape:window-width="1920"
     inkscape:window-height="1057"
     inkscape:window-x="1912"
     inkscape:window-y="-8"
     inkscape:window-maximized="1" />
  <metadata
     id="metadata1371">
    <rdf:RDF>
      <cc:Work
         rdf:about="">
        <dc:format>image/svg+xml</dc:format>
        <dc:type
           rdf:resource="http://purl.org/dc/dcmitype/StillImage" />
        <dc:title />
      </cc:Work>
    </rdf:RDF>
  </metadata>
  <g
     inkscape:label="Layer 1"
     inkscape:groupmode="layer"
     id="layer1"
     transform="translate(0,3)">
    <g
       id="g1941"
       transform="translate(68.035714,2.2678571)" />
    <path
       style="opacity:1;fill:#5d78ff;fill-opacity:1;fill-rule:nonzero;stroke:none;stroke-width:44.25728989;stroke-linecap:round;stroke-linejoin:round;stroke-miterlimit:4;stroke-dasharray:1062.1748886, 1062.1748886;stroke-dashoffset:0;stroke-opacity:1;paint-order:markers fill stroke"
       d="M 1115.3906 103.20117 C 1112.0064 103.20117 1108.6225 104.49862 1106.0293 107.0918 L 666.12305 546.99805 A 283.94027 283.94027 0 0 1 672.00586 578.56055 L 1124.752 125.81445 C 1129.9383 120.62811 1129.9383 112.27814 1124.752 107.0918 C 1122.1588 104.49862 1118.7749 103.20117 1115.3906 103.20117 z M 323.66016 889.45898 L 113.69531 1099.4238 C 108.50897 1104.6102 108.50897 1112.9621 113.69531 1118.1484 C 118.88166 1123.3348 127.23162 1123.3348 132.41797 1118.1484 L 355.28125 895.28516 A 283.94027 283.94027 0 0 1 323.66016 889.45898 z "
       transform="matrix(0.26458333,0,0,0.26458333,0,-3)"
       id="rect815" />
    <path
       style="opacity:1;fill:#5d78ff;fill-opacity:1;fill-rule:nonzero;stroke:none;stroke-width:31.11841011;stroke-linecap:round;stroke-linejoin:round;stroke-miterlimit:4;stroke-dasharray:746.84177805, 746.84177805;stroke-dashoffset:0;stroke-opacity:1;paint-order:markers fill stroke"
       d="M 383.41406 237.05664 A 374.46548 374.46548 0 0 0 172.93945 305.50391 A 374.46548 374.46548 0 0 0 82.285156 826.57617 A 374.46548 374.46548 0 0 0 603.12305 918.55859 A 374.46548 374.46548 0 0 0 696.43555 397.95898 L 694.24023 394.82812 A 374.46548 374.46548 0 0 0 383.41406 237.05664 z M 384.71875 327.57227 A 283.94027 283.94027 0 0 1 620.4043 447.20312 L 622.07031 449.57617 A 283.94027 283.94027 0 0 1 551.31445 844.32617 A 283.94027 283.94027 0 0 1 156.38672 774.57812 A 283.94027 283.94027 0 0 1 225.12695 379.47266 A 283.94027 283.94027 0 0 1 384.71875 327.57227 z "
       id="path1943"
       transform="matrix(0.26458333,0,0,0.26458333,0,-3)" />
  </g>
</svg>
