<?xml version="1.0" encoding="UTF-8" standalone="no"?>
<!-- Created with Inkscape (http://www.inkscape.org/) -->

<svg
   xmlns:dc="http://purl.org/dc/elements/1.1/"
   xmlns:cc="http://creativecommons.org/ns#"
   xmlns:rdf="http://www.w3.org/1999/02/22-rdf-syntax-ns#"
   xmlns:svg="http://www.w3.org/2000/svg"
   xmlns="http://www.w3.org/2000/svg"
   xmlns:sodipodi="http://sodipodi.sourceforge.net/DTD/sodipodi-0.dtd"
   xmlns:inkscape="http://www.inkscape.org/namespaces/inkscape"
   width="300mm"
   height="300mm"
   viewBox="0 0 300 300"
   version="1.1"
   id="svg1374"
   inkscape:version="0.92.4 (5da689c313, 2019-01-14)"
   sodipodi:docname="back-circle.svg">
  <defs
     id="defs1368" />
  <sodipodi:namedview
     id="base"
     pagecolor="#ffffff"
     bordercolor="#666666"
     borderopacity="1.0"
     inkscape:pageopacity="0.0"
     inkscape:pageshadow="2"
     inkscape:zoom="0.35"
     inkscape:cx="-682.28346"
     inkscape:cy="560"
     inkscape:document-units="mm"
     inkscape:current-layer="layer1"
     showgrid="false"
     inkscape:window-width="1920"
     inkscape:window-height="1057"
     inkscape:window-x="1912"
     inkscape:window-y="-8"
     inkscape:window-maximized="1" />
  <metadata
     id="metadata1371">
    <rdf:RDF>
      <cc:Work
         rdf:about="">
        <dc:format>image/svg+xml</dc:format>
        <dc:type
           rdf:resource="http://purl.org/dc/dcmitype/StillImage" />
        <dc:title />
      </cc:Work>
    </rdf:RDF>
  </metadata>
  <g
     inkscape:label="Layer 1"
     inkscape:groupmode="layer"
     id="layer1"
     transform="translate(0,3)">
    <g
       id="g1941"
       transform="translate(68.035714,2.2678571)" />
    <path
       style="opacity:1;fill:#2a9fd0;fill-opacity:1;fill-rule:nonzero;stroke:none;stroke-width:45.58677292;stroke-linecap:round;stroke-linejoin:round;stroke-miterlimit:4;stroke-dasharray:1094.08248813, 1094.08248813;stroke-dashoffset:0;stroke-opacity:1;paint-order:markers fill stroke"
       d="M 557.80273 11.058594 A 548.57147 548.57147 0 0 0 249.4707 111.33008 A 548.57147 548.57147 0 0 0 116.66602 874.67188 A 548.57147 548.57147 0 0 0 879.66602 1009.4219 A 548.57147 548.57147 0 0 0 1016.3652 246.77148 L 1013.1465 242.18555 A 548.57147 548.57147 0 0 0 557.80273 11.058594 z M 560.33789 186.75391 A 372.85715 372.85715 0 0 1 869.82812 343.84961 L 872.01562 346.96484 A 372.85715 372.85715 0 0 1 779.10352 865.33008 A 372.85715 372.85715 0 0 1 260.50195 773.74023 A 372.85715 372.85715 0 0 1 350.76758 254.9082 A 372.85715 372.85715 0 0 1 560.33789 186.75391 z "
       transform="matrix(0.26458333,0,0,0.26458333,0,-3)"
       id="path1943" />
  </g>
</svg>
