<?xml version="1.0" encoding="UTF-8" standalone="no"?>
<!-- Generator: Adobe Illustrator 19.0.0, SVG Export Plug-In . SVG Version: 6.00 Build 0)  -->

<svg
   xmlns:dc="http://purl.org/dc/elements/1.1/"
   xmlns:cc="http://creativecommons.org/ns#"
   xmlns:rdf="http://www.w3.org/1999/02/22-rdf-syntax-ns#"
   xmlns:svg="http://www.w3.org/2000/svg"
   xmlns="http://www.w3.org/2000/svg"
   xmlns:sodipodi="http://sodipodi.sourceforge.net/DTD/sodipodi-0.dtd"
   xmlns:inkscape="http://www.inkscape.org/namespaces/inkscape"
   version="1.1"
   id="Capa_1"
   x="0px"
   y="0px"
   viewBox="0 0 512 512"
   style="enable-background:new 0 0 512 512;"
   xml:space="preserve"
   sodipodi:docname="034-instagram.svg"
   inkscape:version="0.92.4 (5da689c313, 2019-01-14)"><metadata
   id="metadata64"><rdf:RDF><cc:Work
       rdf:about=""><dc:format>image/svg+xml</dc:format><dc:type
         rdf:resource="http://purl.org/dc/dcmitype/StillImage" /></cc:Work></rdf:RDF></metadata><defs
   id="defs62" /><sodipodi:namedview
   pagecolor="#ffffff"
   bordercolor="#666666"
   borderopacity="1"
   objecttolerance="10"
   gridtolerance="10"
   guidetolerance="10"
   inkscape:pageopacity="0"
   inkscape:pageshadow="2"
   inkscape:window-width="1920"
   inkscape:window-height="1057"
   id="namedview60"
   showgrid="false"
   inkscape:zoom="0.4609375"
   inkscape:cx="256"
   inkscape:cy="256"
   inkscape:window-x="1912"
   inkscape:window-y="-8"
   inkscape:window-maximized="1"
   inkscape:current-layer="Capa_1" />
<linearGradient
   id="SVGID_1_"
   gradientUnits="userSpaceOnUse"
   x1="-46.0041"
   y1="634.1208"
   x2="-32.9334"
   y2="647.1917"
   gradientTransform="matrix(32 0 0 -32 1519 20757)">
	<stop
   offset="0"
   style="stop-color:#FFC107"
   id="stop2" />
	<stop
   offset="0.507"
   style="stop-color:#F44336"
   id="stop4" />
	<stop
   offset="0.99"
   style="stop-color:#9C27B0"
   id="stop6" />
</linearGradient>
<path
   style="fill:#ffffff;fill-opacity:1"
   d="M352,0H160C71.648,0,0,71.648,0,160v192c0,88.352,71.648,160,160,160h192  c88.352,0,160-71.648,160-160V160C512,71.648,440.352,0,352,0z M464,352c0,61.76-50.24,112-112,112H160c-61.76,0-112-50.24-112-112  V160C48,98.24,98.24,48,160,48h192c61.76,0,112,50.24,112,112V352z"
   id="path9" />
<linearGradient
   id="SVGID_2_"
   gradientUnits="userSpaceOnUse"
   x1="-42.2971"
   y1="637.8279"
   x2="-36.6404"
   y2="643.4846"
   gradientTransform="matrix(32 0 0 -32 1519 20757)">
	<stop
   offset="0"
   style="stop-color:#FFC107"
   id="stop11" />
	<stop
   offset="0.507"
   style="stop-color:#F44336"
   id="stop13" />
	<stop
   offset="0.99"
   style="stop-color:#9C27B0"
   id="stop15" />
</linearGradient>
<path
   style="fill:#ffffff;fill-opacity:1"
   d="M256,128c-70.688,0-128,57.312-128,128s57.312,128,128,128s128-57.312,128-128  S326.688,128,256,128z M256,336c-44.096,0-80-35.904-80-80c0-44.128,35.904-80,80-80s80,35.872,80,80  C336,300.096,300.096,336,256,336z"
   id="path18" />
<linearGradient
   id="SVGID_3_"
   gradientUnits="userSpaceOnUse"
   x1="-35.5456"
   y1="644.5793"
   x2="-34.7919"
   y2="645.3331"
   gradientTransform="matrix(32 0 0 -32 1519 20757)">
	<stop
   offset="0"
   style="stop-color:#FFC107"
   id="stop20" />
	<stop
   offset="0.507"
   style="stop-color:#F44336"
   id="stop22" />
	<stop
   offset="0.99"
   style="stop-color:#9C27B0"
   id="stop24" />
</linearGradient>
<circle
   style="fill:#ffffff;fill-opacity:1"
   cx="393.6"
   cy="118.4"
   r="17.056"
   id="circle27" />
<g
   id="g29">
</g>
<g
   id="g31">
</g>
<g
   id="g33">
</g>
<g
   id="g35">
</g>
<g
   id="g37">
</g>
<g
   id="g39">
</g>
<g
   id="g41">
</g>
<g
   id="g43">
</g>
<g
   id="g45">
</g>
<g
   id="g47">
</g>
<g
   id="g49">
</g>
<g
   id="g51">
</g>
<g
   id="g53">
</g>
<g
   id="g55">
</g>
<g
   id="g57">
</g>
</svg>