<?xml version="1.0" encoding="UTF-8" standalone="no"?>
<!-- Generator: Adobe Illustrator 19.0.0, SVG Export Plug-In . SVG Version: 6.00 Build 0)  -->

<svg
   xmlns:dc="http://purl.org/dc/elements/1.1/"
   xmlns:cc="http://creativecommons.org/ns#"
   xmlns:rdf="http://www.w3.org/1999/02/22-rdf-syntax-ns#"
   xmlns:svg="http://www.w3.org/2000/svg"
   xmlns="http://www.w3.org/2000/svg"
   xmlns:sodipodi="http://sodipodi.sourceforge.net/DTD/sodipodi-0.dtd"
   xmlns:inkscape="http://www.inkscape.org/namespaces/inkscape"
   version="1.1"
   id="Layer_1"
   x="0px"
   y="0px"
   viewBox="0 0 400.932 400.932"
   style="enable-background:new 0 0 400.932 400.932;"
   xml:space="preserve"
   sodipodi:docname="015-skype.svg"
   inkscape:version="0.92.4 (5da689c313, 2019-01-14)"><metadata
   id="metadata39"><rdf:RDF><cc:Work
       rdf:about=""><dc:format>image/svg+xml</dc:format><dc:type
         rdf:resource="http://purl.org/dc/dcmitype/StillImage" /></cc:Work></rdf:RDF></metadata><defs
   id="defs37" /><sodipodi:namedview
   pagecolor="#ffffff"
   bordercolor="#666666"
   borderopacity="1"
   objecttolerance="10"
   gridtolerance="10"
   guidetolerance="10"
   inkscape:pageopacity="0"
   inkscape:pageshadow="2"
   inkscape:window-width="1920"
   inkscape:window-height="1057"
   id="namedview35"
   showgrid="false"
   inkscape:zoom="0.58862849"
   inkscape:cx="200.466"
   inkscape:cy="200.466"
   inkscape:window-x="1912"
   inkscape:window-y="-8"
   inkscape:window-maximized="1"
   inkscape:current-layer="Layer_1" />
<path
   style="fill:#ffffff;fill-opacity:1"
   d="M384.762,231.039c-6.361-8.792-9.309-19.53-9.297-30.382c0.001-0.063,0.001-0.126,0.001-0.19  c0-96.649-78.35-174.999-174.999-174.999c-21.143,0-41.402,3.763-60.162,10.64c-10.149,3.72-21.267,4.435-31.672,1.504  c-9.191-2.589-19.009-3.681-29.18-2.981c-42.725,2.94-77.121,37.955-79.335,80.724c-1.057,20.414,5.065,39.351,16.053,54.539  c6.361,8.792,9.309,19.53,9.296,30.382c0,0.063,0,0.126,0,0.19c0,96.649,78.349,174.999,174.999,174.999  c21.144,0,41.403-3.763,60.162-10.64c10.149-3.72,21.267-4.435,31.672-1.504c9.191,2.589,19.008,3.681,29.18,2.981  c42.725-2.94,77.12-37.954,79.335-80.722C401.872,265.166,395.75,246.228,384.762,231.039z M206.873,169.093  c35.286,8.391,88.608,21.071,88.608,79.806c0,28.934-14.249,51.006-40.124,62.149c-18.464,7.952-39.361,9.025-57.368,9.025  c-55.336,0-90.286-43.028-91.747-44.86c-9.062-11.366-7.197-27.928,4.17-36.99c11.364-9.066,27.926-7.196,36.99,4.167  c0.081,0.097,20.982,24.101,50.587,25.04c35.65,1.131,43.795-9.476,44.848-18.53c1.287-11.058-8.55-19.176-48.146-28.592  c-33.562-7.982-84.287-20.044-84.287-74.137c0-16.845,6.851-71.807,95.013-71.807c55.668,0,88.527,43.829,89.899,45.695  c8.61,11.713,6.096,28.189-5.617,36.798c-11.662,8.572-28.034,6.119-36.677-5.452c-0.62-0.797-19.429-21.723-47.605-24.398  c-21.32-2.025-42.37,5.663-42.37,17.02C163.047,156.06,169.092,160.108,206.873,169.093z"
   id="path2" />
<g
   id="g4">
</g>
<g
   id="g6">
</g>
<g
   id="g8">
</g>
<g
   id="g10">
</g>
<g
   id="g12">
</g>
<g
   id="g14">
</g>
<g
   id="g16">
</g>
<g
   id="g18">
</g>
<g
   id="g20">
</g>
<g
   id="g22">
</g>
<g
   id="g24">
</g>
<g
   id="g26">
</g>
<g
   id="g28">
</g>
<g
   id="g30">
</g>
<g
   id="g32">
</g>
</svg>