<?xml version="1.0" encoding="UTF-8" standalone="no"?>
<svg
   xmlns:dc="http://purl.org/dc/elements/1.1/"
   xmlns:cc="http://creativecommons.org/ns#"
   xmlns:rdf="http://www.w3.org/1999/02/22-rdf-syntax-ns#"
   xmlns:svg="http://www.w3.org/2000/svg"
   xmlns="http://www.w3.org/2000/svg"
   xmlns:sodipodi="http://sodipodi.sourceforge.net/DTD/sodipodi-0.dtd"
   xmlns:inkscape="http://www.inkscape.org/namespaces/inkscape"
   viewBox="0 0 48 48"
   width="100px"
   height="100px"
   version="1.1"
   id="svg6"
   sodipodi:docname="IMG.svg"
   inkscape:version="0.92.4 (5da689c313, 2019-01-14)">
  <metadata
     id="metadata12">
    <rdf:RDF>
      <cc:Work
         rdf:about="">
        <dc:format>image/svg+xml</dc:format>
        <dc:type
           rdf:resource="http://purl.org/dc/dcmitype/StillImage" />
      </cc:Work>
    </rdf:RDF>
  </metadata>
  <defs
     id="defs10" />
  <sodipodi:namedview
     pagecolor="#ffffff"
     bordercolor="#666666"
     borderopacity="1"
     objecttolerance="10"
     gridtolerance="10"
     guidetolerance="10"
     inkscape:pageopacity="0"
     inkscape:pageshadow="2"
     inkscape:window-width="1920"
     inkscape:window-height="1057"
     id="namedview8"
     showgrid="false"
     inkscape:zoom="6.675088"
     inkscape:cx="52.041038"
     inkscape:cy="44.78014"
     inkscape:window-x="1912"
     inkscape:window-y="-8"
     inkscape:window-maximized="1"
     inkscape:current-layer="svg6" />
  <path
     style="opacity:1;fill:#f57c00;fill-opacity:1;stroke:none;stroke-width:0.47999999px;stroke-linecap:butt;stroke-linejoin:miter;stroke-opacity:1"
     d="m 4.628359,8.2327359 c 0,0 6.231911,2.8039411 19.990486,2.8039411 13.950486,0 19.99101,-2.9477601 19.99101,-2.9477601 v 1.77549 30.7274531 c 0,0 -6.321998,-3.45164 -19.559294,-3.45164 -13.572764,0 -20.56602,3.45164 -20.56602,3.45164 z"
     id="path833"
     inkscape:connector-curvature="0"
     sodipodi:nodetypes="cscccscc" />
  <path
     style="opacity:1;fill:#fff9c4;fill-opacity:1;fill-rule:nonzero;stroke:none;stroke-width:14.5877676;stroke-linecap:round;stroke-linejoin:round;stroke-miterlimit:4;stroke-dasharray:350.1064063, 350.1064063;stroke-dashoffset:0;stroke-opacity:1;paint-order:markers fill stroke"
     id="path835"
     sodipodi:type="arc"
     sodipodi:cx="36.026493"
     sodipodi:cy="19.595879"
     sodipodi:rx="1.9415474"
     sodipodi:ry="2.5887301"
     sodipodi:start="5.6764216"
     sodipodi:end="5.6662114"
     sodipodi:open="true"
     d="m 37.62147,18.119754 a 1.9415474,2.5887301 0 0 1 -0.483816,3.598986 1.9415474,2.5887301 0 0 1 -2.700465,-0.635899 1.9415474,2.5887301 0 0 1 0.47003,-3.602232 1.9415474,2.5887301 0 0 1 2.702864,0.617509" />
  <path
     style="fill:#ea5d00;fill-opacity:1;stroke:none;stroke-width:0.47999999px;stroke-linecap:butt;stroke-linejoin:miter;stroke-opacity:1"
     d="m 35.084745,26.745763 5.542374,9.050847 c 0,0 -3.885341,-1.071492 -5.886578,-1.357636 -1.758705,-0.251466 -5.325287,-0.32033 -5.325287,-0.32033 z"
     id="path896"
     inkscape:connector-curvature="0"
     sodipodi:nodetypes="ccscc" />
  <path
     style="fill:#cf4a09;fill-opacity:1;stroke:none;stroke-width:0.47999996px;stroke-linecap:butt;stroke-linejoin:miter;stroke-opacity:1"
     d="m 25.779661,23.008475 7.983051,11.288135 c 0,0 -5.211864,-0.228814 -7.855932,-0.228814 -2.762712,0 -8.31356,0.279661 -8.31356,0.279661 z"
     id="path879"
     inkscape:connector-curvature="0"
     sodipodi:nodetypes="ccscc" />
  <path
     style="fill:#b04206;fill-opacity:1;stroke:none;stroke-width:0.47999993px;stroke-linecap:butt;stroke-linejoin:miter;stroke-opacity:1"
     d="M 7.0257484,36.247993 15.151483,19.27743 24.499675,34.090718 c 0,0 -6.590594,0.119052 -9.440977,0.470951 -2.97426,0.367193 -8.0329496,1.686324 -8.0329496,1.686324 z"
     id="path877"
     inkscape:connector-curvature="0"
     sodipodi:nodetypes="cccsc" />
</svg>
