<?xml version="1.0" encoding="UTF-8" standalone="no"?>
<svg
   xmlns:dc="http://purl.org/dc/elements/1.1/"
   xmlns:cc="http://creativecommons.org/ns#"
   xmlns:rdf="http://www.w3.org/1999/02/22-rdf-syntax-ns#"
   xmlns:svg="http://www.w3.org/2000/svg"
   xmlns="http://www.w3.org/2000/svg"
   xmlns:sodipodi="http://sodipodi.sourceforge.net/DTD/sodipodi-0.dtd"
   xmlns:inkscape="http://www.inkscape.org/namespaces/inkscape"
   viewBox="0 0 48 48"
   width="100px"
   height="100px"
   version="1.1"
   id="svg6"
   sodipodi:docname="archive.svg"
   inkscape:version="0.92.4 (5da689c313, 2019-01-14)">
  <metadata
     id="metadata12">
    <rdf:RDF>
      <cc:Work
         rdf:about="">
        <dc:format>image/svg+xml</dc:format>
        <dc:type
           rdf:resource="http://purl.org/dc/dcmitype/StillImage" />
      </cc:Work>
    </rdf:RDF>
  </metadata>
  <defs
     id="defs10" />
  <sodipodi:namedview
     pagecolor="#ffffff"
     bordercolor="#666666"
     borderopacity="1"
     objecttolerance="10"
     gridtolerance="10"
     guidetolerance="10"
     inkscape:pageopacity="0"
     inkscape:pageshadow="2"
     inkscape:window-width="1920"
     inkscape:window-height="1057"
     id="namedview8"
     showgrid="false"
     inkscape:zoom="3.337544"
     inkscape:cx="66.476173"
     inkscape:cy="108.79512"
     inkscape:window-x="1912"
     inkscape:window-y="-8"
     inkscape:window-maximized="1"
     inkscape:current-layer="svg6" />
  <path
     fill="#FFA000"
     d="M40,12H22l-4-4H8c-2.2,0-4,1.8-4,4v8h40v-4C44,13.8,42.2,12,40,12z"
     id="path2" />
  <path
     fill="#FFCA28"
     d="M40,12H8c-2.2,0-4,1.8-4,4v20c0,2.2,1.8,4,4,4h32c2.2,0,4-1.8,4-4V16C44,13.8,42.2,12,40,12z"
     id="path4" />
  <rect
     style="opacity:1;fill:#bf360c;fill-opacity:1;fill-rule:nonzero;stroke:none;stroke-width:2.48942065;stroke-linecap:round;stroke-linejoin:round;stroke-miterlimit:4;stroke-dasharray:59.74609094, 59.74609094;stroke-dashoffset:0;stroke-opacity:1;paint-order:markers fill stroke"
     id="rect841"
     width="3.9660976"
     height="2.0338988"
     x="22"
     y="12" />
  <rect
     style="opacity:1;fill:#bf360c;fill-opacity:1;fill-rule:nonzero;stroke:none;stroke-width:2.48942065;stroke-linecap:round;stroke-linejoin:round;stroke-miterlimit:4;stroke-dasharray:59.74608998, 59.74608998;stroke-dashoffset:0;stroke-opacity:1;paint-order:markers fill stroke"
     id="rect841-2"
     width="3.9660974"
     height="2.0338986"
     x="21.898304"
     y="14.745764" />
  <rect
     style="opacity:1;fill:#bf360c;fill-opacity:1;fill-rule:nonzero;stroke:none;stroke-width:2.48942065;stroke-linecap:round;stroke-linejoin:round;stroke-miterlimit:4;stroke-dasharray:59.74608998, 59.74608998;stroke-dashoffset:0;stroke-opacity:1;paint-order:markers fill stroke"
     id="rect841-6"
     width="3.9660974"
     height="2.0338986"
     x="21.898304"
     y="17.491528" />
  <rect
     style="opacity:1;fill:#bf360c;fill-opacity:1;fill-rule:nonzero;stroke:none;stroke-width:2.48942065;stroke-linecap:round;stroke-linejoin:round;stroke-miterlimit:4;stroke-dasharray:59.74608902, 59.74608902;stroke-dashoffset:0;stroke-opacity:1;paint-order:markers fill stroke"
     id="rect841-2-7"
     width="3.9660974"
     height="2.0338984"
     x="21.796608"
     y="20.237291" />
  <path
     style="fill:#bf360c;fill-opacity:1;stroke:none;stroke-width:0.49860057px;stroke-linecap:butt;stroke-linejoin:miter;stroke-opacity:1"
     d="m 25.772285,23.008479 c 0,0 -0.103345,2.157906 0.572359,3.730287 1.645925,3.830118 1.32596,4.309935 0.994498,5.478662 -0.827232,2.916798 -3.432257,2.892743 -3.432257,2.892743 m 0,0 c 0,0 -2.944066,-0.0065 -3.723795,-2.305815 -0.404064,-1.191508 -0.827195,-3.014649 0.847118,-6.316495 0.679903,-1.340811 0.791824,-3.479382 0.791824,-3.479382 h 3.950253"
     id="path878"
     inkscape:connector-curvature="0"
     sodipodi:nodetypes="cssccsscc" />
  <path
     style="opacity:1;fill:#ffca28;fill-opacity:1;fill-rule:nonzero;stroke:none;stroke-width:28.70996857;stroke-linecap:round;stroke-linejoin:round;stroke-miterlimit:4;stroke-dasharray:689.03919373, 689.03919373;stroke-dashoffset:0;stroke-opacity:1;paint-order:markers fill stroke"
     id="path880"
     sodipodi:type="arc"
     sodipodi:cx="23.683418"
     sodipodi:cy="30.851694"
     sodipodi:rx="2.2766407"
     sodipodi:ry="2.3516948"
     sodipodi:start="5.6764216"
     sodipodi:end="5.6662137"
     sodipodi:open="true"
     d="m 25.553673,29.51073 a 2.2766407,2.3516948 0 0 1 -0.567319,3.269448 2.2766407,2.3516948 0 0 1 -3.166541,-0.577677 2.2766407,2.3516948 0 0 1 0.551157,-3.272396 2.2766407,2.3516948 0 0 1 3.169355,0.560974" />
</svg>
