<?xml version="1.0" encoding="UTF-8" standalone="no"?>
<!-- Created with Inkscape (http://www.inkscape.org/) -->

<svg
   xmlns:dc="http://purl.org/dc/elements/1.1/"
   xmlns:cc="http://creativecommons.org/ns#"
   xmlns:rdf="http://www.w3.org/1999/02/22-rdf-syntax-ns#"
   xmlns:svg="http://www.w3.org/2000/svg"
   xmlns="http://www.w3.org/2000/svg"
   xmlns:sodipodi="http://sodipodi.sourceforge.net/DTD/sodipodi-0.dtd"
   xmlns:inkscape="http://www.inkscape.org/namespaces/inkscape"
   width="707.10675"
   height="707.10675"
   viewBox="0 0 187.08865 187.08868"
   version="1.1"
   id="svg8"
   inkscape:version="0.92.4 (5da689c313, 2019-01-14)"
   sodipodi:docname="AUDIO.svg">
  <defs
     id="defs2" />
  <sodipodi:namedview
     id="base"
     pagecolor="#ffffff"
     bordercolor="#666666"
     borderopacity="1.0"
     inkscape:pageopacity="0.0"
     inkscape:pageshadow="2"
     inkscape:zoom="0.7"
     inkscape:cx="24.938882"
     inkscape:cy="351.71218"
     inkscape:document-units="mm"
     inkscape:current-layer="layer3"
     showgrid="false"
     showguides="false"
     inkscape:guide-bbox="true"
     inkscape:snap-global="true"
     units="px"
     fit-margin-top="0"
     fit-margin-left="0"
     fit-margin-right="0"
     fit-margin-bottom="0"
     inkscape:window-width="1920"
     inkscape:window-height="1057"
     inkscape:window-x="1912"
     inkscape:window-y="-8"
     inkscape:window-maximized="1">
    <sodipodi:guide
       position="-86.595321,79.621384"
       orientation="1,0"
       id="guide1105"
       inkscape:locked="false" />
    <sodipodi:guide
       position="100.49334,45.143614"
       orientation="1,0"
       id="guide1107"
       inkscape:locked="false" />
    <sodipodi:guide
       position="1.8708898,96.993904"
       orientation="0,1"
       id="guide1109"
       inkscape:locked="false" />
    <sodipodi:guide
       position="-6.1472003,40.065492"
       orientation="0,1"
       id="guide1111"
       inkscape:locked="false" />
  </sodipodi:namedview>
  <metadata
     id="metadata5">
    <rdf:RDF>
      <cc:Work
         rdf:about="">
        <dc:format>image/svg+xml</dc:format>
        <dc:type
           rdf:resource="http://purl.org/dc/dcmitype/StillImage" />
        <dc:title />
      </cc:Work>
    </rdf:RDF>
  </metadata>
  <g
     inkscape:label="Layer 1"
     inkscape:groupmode="layer"
     id="layer1"
     transform="translate(-43.29766,-62.846942)"
     style="display:none">
    <path
       style="fill:#bbdefb;fill-opacity:1;stroke:none;stroke-width:0.26458332px;stroke-linecap:butt;stroke-linejoin:miter;stroke-opacity:1"
       d="M 80.982661,162.5634 H 186.01958 c 0,0 24.31804,-3.82468 22.11555,-31.02331 -1.65772,-20.47123 -27.46094,-22.16333 -27.46094,-22.16333 0,0 2.2768,-14.111744 -11.0115,-21.541925 -13.07914,-7.313232 -25.87169,3.100326 -25.87169,3.100326 0,0 -13.88199,-28.282726 -43.7788,-18.002168 -26.415378,9.083407 -21.702235,38.314657 -21.702235,38.314657 0,0 -20.763487,3.38189 -19.385008,28.07068 1.29713,23.23181 22.057704,23.24507 22.057704,23.24507 z"
       id="path1092"
       inkscape:connector-curvature="0"
       sodipodi:nodetypes="ccscscscsc" />
    <rect
       style="opacity:0.01400003;fill:#c7bbfb;fill-opacity:1;fill-rule:nonzero;stroke:none;stroke-width:0.09773213;stroke-linecap:round;stroke-linejoin:round;stroke-miterlimit:4;stroke-dasharray:none;stroke-opacity:1;paint-order:markers fill stroke"
       id="rect1098"
       width="186.55414"
       height="56.928406"
       x="43.832184"
       y="185.01404"
       ry="13.530069"
       rx="13.630746" />
    <g
       id="g1260"
       transform="translate(86.595321,-24.8561)">
      <rect
         ry="30"
         rx="30"
         y="209.87013"
         x="-43.297661"
         height="56.928413"
         width="187.08865"
         id="rect1251"
         style="opacity:1;fill:#79909d;fill-opacity:1;fill-rule:nonzero;stroke:none;stroke-width:0.1;stroke-linecap:round;stroke-linejoin:round;stroke-miterlimit:4;stroke-dasharray:none;stroke-opacity:1;paint-order:markers fill stroke" />
      <path
         d="m -2.6726952,239.40341 a 10.022608,10.022608 0 0 1 -10.0225198,10.02261 10.022608,10.022608 0 0 1 -10.022696,-10.02243 10.022608,10.022608 0 0 1 10.022346,-10.02279 10.022608,10.022608 0 0 1 10.0228698,10.02226 l -10.0226078,3.5e-4 z"
         sodipodi:end="6.2831504"
         sodipodi:start="0"
         sodipodi:ry="10.022608"
         sodipodi:rx="10.022608"
         sodipodi:cy="239.40341"
         sodipodi:cx="-12.695303"
         sodipodi:type="arc"
         id="path1253"
         style="opacity:1;fill:#77fe06;fill-opacity:1;fill-rule:nonzero;stroke:none;stroke-width:0.1;stroke-linecap:round;stroke-linejoin:round;stroke-miterlimit:4;stroke-dasharray:none;stroke-opacity:1;paint-order:markers fill stroke" />
      <rect
         y="234.72621"
         x="11.22532"
         height="9.3544331"
         width="107.97688"
         id="rect1255"
         style="opacity:1;fill:#465b66;fill-opacity:1;fill-rule:nonzero;stroke:none;stroke-width:0.1;stroke-linecap:round;stroke-linejoin:round;stroke-miterlimit:4;stroke-dasharray:none;stroke-opacity:1;paint-order:markers fill stroke"
         ry="4.677"
         rx="4.677" />
    </g>
  </g>
  <g
     inkscape:groupmode="layer"
     id="layer3"
     inkscape:label="Layer 3"
     style="display:inline">
    <path
       id="path1292"
       d="m 45.828539,11.424227 c -8.991107,0 -16.265757,7.35636 -16.265757,16.347467 l -0.08155,130.779766 c 0,8.99111 7.2746,16.34747 16.265707,16.34747 h 98.166581 c 8.9911,0 16.34746,-7.35636 16.34746,-16.34747 V 67.250837 c 0,-4.332082 -1.71651,-8.500686 -4.82251,-11.524968 L 115.95933,16.246731 c -3.02429,-3.106022 -7.19289,-4.822504 -11.52496,-4.822504 z m 57.216141,49.04241 V 25.910296 c 0.0395,-2.006817 1.562,-0.663461 1.562,-0.663461 l 41.84506,41.812031 c 1.66145,1.527747 -0.33318,1.581503 -0.33318,1.581503 h -34.90012 c -4.49557,0 -8.17376,-3.678179 -8.17376,-8.173732 z"
       inkscape:connector-curvature="0"
       style="fill:#4aa61c;fill-opacity:1;stroke-width:8.17373466"
       sodipodi:nodetypes="sccssssccsssccccss" />
    <path
       style="fill:#3a8116;fill-opacity:1;stroke:none;stroke-width:0.46028423px;stroke-linecap:butt;stroke-linejoin:miter;stroke-opacity:1"
       d="m 95.655539,75.325592 c -0.737099,0.512522 -0.614211,1.583009 -0.614211,1.583009 v 32.316969 c 0,0 0.0069,0.10247 -0.12402,0.16368 -0.168366,0.0787 -0.288756,-0.0412 -0.288756,-0.0412 -1.777899,-1.52262 -9.220747,-6.82834 -19.95765,-0.62938 -7.952548,4.59141 -7.246629,17.44299 -7.246629,17.44299 0,0 1.051188,16.50599 17.419661,16.50599 18.951206,0 19.403076,-16.50599 19.403076,-16.50599 V 91.940709 c 0,0 -0.0391,-0.292991 0.13363,-0.411996 0.2041,-0.140652 0.56126,0.04756 0.56126,0.04756 l 12.03326,4.584096 c 0,0 0.47959,0.252282 0.79691,0.0336 0.32655,-0.225044 0.28348,-0.811783 0.28348,-0.811783 V 84.562619 c 0,0 0.10614,-0.928818 -0.23624,-1.421216 -0.33279,-0.478625 -1.40319,-0.986907 -1.40319,-0.986907 L 98.526139,75.509645 c 0,0 -1.853224,-0.891458 -2.8706,-0.184053 z"
       id="path838"
       inkscape:connector-curvature="0"
       sodipodi:nodetypes="sccssscsccsccsccsccs" />
  </g>
  <g
     inkscape:groupmode="layer"
     id="layer2"
     inkscape:label="Layer 2"
     transform="translate(-43.29766,-62.846942)"
     style="display:none" />
</svg>
