<?xml version="1.0" encoding="UTF-8" standalone="no"?>
<!-- Created with Inkscape (http://www.inkscape.org/) -->

<svg
   xmlns:dc="http://purl.org/dc/elements/1.1/"
   xmlns:cc="http://creativecommons.org/ns#"
   xmlns:rdf="http://www.w3.org/1999/02/22-rdf-syntax-ns#"
   xmlns:svg="http://www.w3.org/2000/svg"
   xmlns="http://www.w3.org/2000/svg"
   xmlns:sodipodi="http://sodipodi.sourceforge.net/DTD/sodipodi-0.dtd"
   xmlns:inkscape="http://www.inkscape.org/namespaces/inkscape"
   width="707.10675"
   height="707.10675"
   viewBox="0 0 187.08865 187.08868"
   version="1.1"
   id="svg8"
   inkscape:version="0.92.4 (5da689c313, 2019-01-14)"
   sodipodi:docname="BAT.svg">
  <defs
     id="defs2" />
  <sodipodi:namedview
     id="base"
     pagecolor="#ffffff"
     bordercolor="#666666"
     borderopacity="1.0"
     inkscape:pageopacity="0.0"
     inkscape:pageshadow="2"
     inkscape:zoom="0.35"
     inkscape:cx="1171.9596"
     inkscape:cy="66.143241"
     inkscape:document-units="mm"
     inkscape:current-layer="g854"
     showgrid="false"
     showguides="false"
     inkscape:guide-bbox="true"
     inkscape:snap-global="true"
     units="px"
     fit-margin-top="0"
     fit-margin-left="0"
     fit-margin-right="0"
     fit-margin-bottom="0"
     inkscape:window-width="1920"
     inkscape:window-height="1057"
     inkscape:window-x="1912"
     inkscape:window-y="-8"
     inkscape:window-maximized="1">
    <sodipodi:guide
       position="-86.595321,79.621384"
       orientation="1,0"
       id="guide1105"
       inkscape:locked="false" />
    <sodipodi:guide
       position="100.49334,45.143614"
       orientation="1,0"
       id="guide1107"
       inkscape:locked="false" />
    <sodipodi:guide
       position="1.8708898,96.993904"
       orientation="0,1"
       id="guide1109"
       inkscape:locked="false" />
    <sodipodi:guide
       position="-6.1472003,40.065492"
       orientation="0,1"
       id="guide1111"
       inkscape:locked="false" />
  </sodipodi:namedview>
  <metadata
     id="metadata5">
    <rdf:RDF>
      <cc:Work
         rdf:about="">
        <dc:format>image/svg+xml</dc:format>
        <dc:type
           rdf:resource="http://purl.org/dc/dcmitype/StillImage" />
        <dc:title />
      </cc:Work>
    </rdf:RDF>
  </metadata>
  <g
     inkscape:label="Layer 1"
     inkscape:groupmode="layer"
     id="layer1"
     transform="translate(-43.29766,-62.846942)"
     style="display:none">
    <path
       style="fill:#bbdefb;fill-opacity:1;stroke:none;stroke-width:0.26458332px;stroke-linecap:butt;stroke-linejoin:miter;stroke-opacity:1"
       d="M 80.982661,162.5634 H 186.01958 c 0,0 24.31804,-3.82468 22.11555,-31.02331 -1.65772,-20.47123 -27.46094,-22.16333 -27.46094,-22.16333 0,0 2.2768,-14.111744 -11.0115,-21.541925 -13.07914,-7.313232 -25.87169,3.100326 -25.87169,3.100326 0,0 -13.88199,-28.282726 -43.7788,-18.002168 -26.415378,9.083407 -21.702235,38.314657 -21.702235,38.314657 0,0 -20.763487,3.38189 -19.385008,28.07068 1.29713,23.23181 22.057704,23.24507 22.057704,23.24507 z"
       id="path1092"
       inkscape:connector-curvature="0"
       sodipodi:nodetypes="ccscscscsc" />
    <rect
       style="opacity:0.01400003;fill:#c7bbfb;fill-opacity:1;fill-rule:nonzero;stroke:none;stroke-width:0.09773213;stroke-linecap:round;stroke-linejoin:round;stroke-miterlimit:4;stroke-dasharray:none;stroke-opacity:1;paint-order:markers fill stroke"
       id="rect1098"
       width="186.55414"
       height="56.928406"
       x="43.832184"
       y="185.01404"
       ry="13.530069"
       rx="13.630746" />
    <g
       id="g1260"
       transform="translate(86.595321,-24.8561)">
      <rect
         ry="30"
         rx="30"
         y="209.87013"
         x="-43.297661"
         height="56.928413"
         width="187.08865"
         id="rect1251"
         style="opacity:1;fill:#79909d;fill-opacity:1;fill-rule:nonzero;stroke:none;stroke-width:0.1;stroke-linecap:round;stroke-linejoin:round;stroke-miterlimit:4;stroke-dasharray:none;stroke-opacity:1;paint-order:markers fill stroke" />
      <path
         d="m -2.6726952,239.40341 a 10.022608,10.022608 0 0 1 -10.0225198,10.02261 10.022608,10.022608 0 0 1 -10.022696,-10.02243 10.022608,10.022608 0 0 1 10.022346,-10.02279 10.022608,10.022608 0 0 1 10.0228698,10.02226 l -10.0226078,3.5e-4 z"
         sodipodi:end="6.2831504"
         sodipodi:start="0"
         sodipodi:ry="10.022608"
         sodipodi:rx="10.022608"
         sodipodi:cy="239.40341"
         sodipodi:cx="-12.695303"
         sodipodi:type="arc"
         id="path1253"
         style="opacity:1;fill:#77fe06;fill-opacity:1;fill-rule:nonzero;stroke:none;stroke-width:0.1;stroke-linecap:round;stroke-linejoin:round;stroke-miterlimit:4;stroke-dasharray:none;stroke-opacity:1;paint-order:markers fill stroke" />
      <rect
         y="234.72621"
         x="11.22532"
         height="9.3544331"
         width="107.97688"
         id="rect1255"
         style="opacity:1;fill:#465b66;fill-opacity:1;fill-rule:nonzero;stroke:none;stroke-width:0.1;stroke-linecap:round;stroke-linejoin:round;stroke-miterlimit:4;stroke-dasharray:none;stroke-opacity:1;paint-order:markers fill stroke"
         ry="4.677"
         rx="4.677" />
    </g>
  </g>
  <g
     inkscape:groupmode="layer"
     id="layer3"
     inkscape:label="Layer 3"
     style="display:inline">
    <g
       id="g854"
       transform="matrix(3.6818085,0,0,3.6818085,4.9136565,4.3359226)">
      <path
         id="path834"
         d="M 44.2,22.7 34.7,7.2 C 34.3,6.5 33.4,6 32.5,6 H 15.4 C 14.5,6 13.7,6.5 13.2,7.2 L 3.8,22.7 c -0.5,0.8 -0.5,1.9 0,2.7 l 9.4,15.4 c 0.5,0.8 1.3,1.2 2.2,1.2 h 17.1 c 0.9,0 1.7,-0.5 2.2,-1.2 l 9.5,-15.4 c 0.5,-0.9 0.5,-1.9 0,-2.7 z"
         inkscape:connector-curvature="0"
         style="fill:#2196f3" />
      <path
         id="path838"
         d="m 22,22 h 4 v 4 h -4 z"
         inkscape:connector-curvature="0"
         style="fill:#0a6bba;fill-opacity:1" />
      <path
         id="path840"
         d="m 33,21 v -2 h -3 v -1 h -1 v -3 h -2 v 3 h -2 v -3 h -2 v 3 h -2 v -3 h -2 v 3 h -1 v 1 h -3 v 2 h 3 v 2 h -3 v 2 h 3 v 2 h -3 v 2 h 3 v 1 h 1 v 3 h 2 v -3 h 2 v 3 h 2 v -3 h 2 v 3 h 2 v -3 h 1 v -1 h 3 v -2 h -3 v -2 h 3 v -2 h -3 v -2 z m -13,7 v -8 h 8 v 8 z"
         inkscape:connector-curvature="0"
         style="fill:#0a6bba;fill-opacity:1" />
    </g>
  </g>
  <g
     inkscape:groupmode="layer"
     id="layer2"
     inkscape:label="Layer 2"
     transform="translate(-43.29766,-62.846942)"
     style="display:none" />
</svg>
