<?xml version="1.0" encoding="UTF-8" standalone="no"?>
<svg
   xmlns:dc="http://purl.org/dc/elements/1.1/"
   xmlns:cc="http://creativecommons.org/ns#"
   xmlns:rdf="http://www.w3.org/1999/02/22-rdf-syntax-ns#"
   xmlns:svg="http://www.w3.org/2000/svg"
   xmlns="http://www.w3.org/2000/svg"
   xmlns:sodipodi="http://sodipodi.sourceforge.net/DTD/sodipodi-0.dtd"
   xmlns:inkscape="http://www.inkscape.org/namespaces/inkscape"
   id="b3eb9a67-8d35-4413-b29d-d464657b13c9"
   data-name="Layer 1"
   width="1161.2085"
   height="1555.9955"
   viewBox="0 0 1161.2085 1555.9955"
   version="1.1"
   sodipodi:docname="undraw.svg"
   inkscape:version="0.92.4 (5da689c313, 2019-01-14)">
  <metadata
     id="metadata2528">
    <rdf:RDF>
      <cc:Work
         rdf:about="">
        <dc:format>image/svg+xml</dc:format>
        <dc:type
           rdf:resource="http://purl.org/dc/dcmitype/StillImage" />
        <dc:title>before dawn</dc:title>
      </cc:Work>
    </rdf:RDF>
  </metadata>
  <sodipodi:namedview
     pagecolor="#ffffff"
     bordercolor="#666666"
     borderopacity="1"
     objecttolerance="10"
     gridtolerance="10"
     guidetolerance="10"
     inkscape:pageopacity="0"
     inkscape:pageshadow="2"
     inkscape:window-width="1920"
     inkscape:window-height="1057"
     id="namedview2526"
     showgrid="false"
     inkscape:zoom="0.70710678"
     inkscape:cx="438.8611"
     inkscape:cy="1654.7327"
     inkscape:window-x="-8"
     inkscape:window-y="-8"
     inkscape:window-maximized="1"
     inkscape:current-layer="b3eb9a67-8d35-4413-b29d-d464657b13c9"
     fit-margin-top="0"
     fit-margin-left="0"
     fit-margin-right="0"
     fit-margin-bottom="0" />
  <defs
     id="defs2047" />
  <title
     id="title2049">before dawn</title>
  <path
     d="m 1079.6948,1023.5145 a 121.55,121.55 0 0 0 3.26,94.61 c 0.83,1.77 1.72,3.56 2.63,5.35 10.83,21.22 25.93,43.28 17.76,65.09 -6.35,17 -24.61,25.94 -41.48,32.61 a 756.23,756.23 0 0 1 -204.00005,49.4 c -51.6,5.09 -103.57,4.84 -155.43,4.58 -112.15,-0.55 -224.42,-1.1 -336.22,-10 -51.11,-4 -102.4,-9.87 -151.57,-24.38 a 443.38,443.38 0 0 1 -180.219998,-104.36 c -1.82,-1.73 -3.61,-3.49 -5.39,-5.28 -10.72,-10.81 -20.5000004,-22.78 -25.4400004,-37.09 -9.8,-28.66 1.95,-60.15 17.0600004,-86.41 15.11,-26.26002 34.07,-51.31002 40.24,-81.00002 9.11,-43.71 -11.16,-87.39 -26.74,-129.23 -15.58,-41.84 -25.8200004,-92.07 -0.05,-128.53 12.57,-17.78 32,-29.39 51.55,-39 a 441.87,441.87 0 0 1 185.139998,-45.13 c 37.45,-0.78 76.23,3 111.24,-10.32 19.71,-7.52 37.43,-20.24 57.93,-25.26 34.65,-8.46 70.52,6.49 101.6,24 17.88,10.08 35.3,21.1 54,29.72 13.59,6.27 29.22,13.29 43.68,17.18 14.17,3.81 28.77,-3.83 41.21,-10.1 27,-13.62 52.38,-33.92 83.44,-37.12 39.33,-4 78.29,21.37 117,13.24 16.5,-3.47 31.15,-12.79 47.21,-17.92 42,-13.44 87.43005,3 127.14005,22.25 24.61,11.92 49.62,25.84 65,48.47 11.78,17.37 16.78,38.33 21.51,58.77 18,77.79 34.43,163.84 -3.74,234 -17.42,31.93 -45.14,57.98 -58.32,91.86002 z"
     id="path2051"
     style="fill:#546ce6;fill-opacity:1"
     inkscape:connector-curvature="0" />
  <g
     id="g2063"
     style="opacity:0.1"
     transform="translate(0.03475155,545.90448)" />
  <path
     d="m 1103.3448,1188.5845 c -6.35,17 -24.61,25.94 -41.48,32.61 -65.37315,25.8694 -134.03433,42.4962 -204.00005,49.4 -51.6,5.09 -103.57,4.84 -155.43,4.58 -112.15,-0.55 -224.42,-1.1 -336.22,-10 -51.11,-4 -102.4,-9.87 -151.57,-24.38 -67.50876,-19.9908 -129.286238,-55.7712 -180.219998,-104.38 -1.82,-1.73 -32.6095934,-3.3847 -34.38959345,-5.1747 15.31713045,-1.9502 59.79086845,-2.4643 75.18959345,-1.3253 43.209998,2.95 85.309998,14.95 128.319998,20.16 166.52,20.12 337.24,-62.18 499.86,-21.06 50.19,12.7 97.72,36.92 149.27,41.78 76.09,7.18 148.82005,-28.39 223.36005,-45.34 25.4467,-5.8536 81.9057,5.5807 85.1257,4.9707 -3.2679,14.5667 -49.6457,36.3293 -57.8157,58.1593 z"
     id="path2065"
     inkscape:connector-curvature="0"
     style="fill:#3f3d56"
     sodipodi:nodetypes="ccccccccccccccc" />
  <rect
     x="897.82471"
     y="836.35449"
     width="5.1300001"
     height="283.07999"
     id="rect2067"
     style="fill:#3f3d56" />
  <path
     d="m 907.83475,1172.3845 a 13.41,13.41 0 0 1 -16.44,0 c -2.29,-15.15 3.53,-44.93 4.9,-51.6 0.19,-0.87 0.29,-1.35 0.29,-1.35 h 6.58 a 4.78,4.78 0 0 1 1,1.54 c 4.57,9.68 3.67,51.41 3.67,51.41 z"
     id="path2069"
     inkscape:connector-curvature="0"
     style="fill:#3f3d56" />
  <path
     d="m 901.81475,1113.3145 v 6.12 h -2.78 v -6.13 a 8.58,8.58 0 0 1 1.35,-0.1 9.52,9.52 0 0 1 1.43,0.11 z"
     id="path2071"
     inkscape:connector-curvature="0"
     style="opacity:0.1" />
  <path
     d="m 904.18475,1120.9745 a 7.85,7.85 0 0 1 -3.8,0.89 7.65,7.65 0 0 1 -4.09,-1.08 c 0.19,-0.87 0.29,-1.35 0.29,-1.35 h 6.58 a 4.78,4.78 0 0 1 1.02,1.54 z"
     id="path2073"
     inkscape:connector-curvature="0"
     style="opacity:0.1" />
  <ellipse
     cx="900.39471"
     cy="1117.5344"
     rx="5.54"
     ry="3.29"
     id="ellipse2075"
     style="fill:#3f3d56" />
  <polygon
     points="924.28,242.39 901.96,225.51 876,244.85 895.19,236.74 "
     id="polygon2077"
     style="fill:#3f3d56"
     transform="translate(0.03475155,545.90448)" />
  <polygon
     points="895.51,235.51 924.28,242.39 919.22,244.85 895.51,239.53 881.71,247.84 876,244.85 "
     id="polygon2079"
     style="fill:#5d78ff"
     transform="translate(0.03475155,545.90448)" />
  <polygon
     points="896.08,234.63 924.28,242.39 919.22,244.85 895.51,239.53 881.71,247.84 876,244.85 "
     id="polygon2081"
     style="fill:#3f3d56"
     transform="translate(0.03475155,545.90448)" />
  <polygon
     points="895.51,237.45 880.94,245.63 896.64,289.63 904.42,289.63 918.96,242.91 "
     id="polygon2083"
     style="fill:#3f3d56"
     transform="translate(0.03475155,545.90448)" />
  <polygon
     points="908.28,277.24 905.17,287.22 904.42,289.63 896.64,289.63 896.06,288 892.39,277.72 898.28,274.18 "
     id="polygon2085"
     style="fill:#3f3d56"
     transform="translate(0.03475155,545.90448)" />
  <polygon
     points="896.64,289.63 881.71,247.84 895.51,239.53 899.23,289.63 "
     id="polygon2087"
     style="opacity:0.2;fill:#5d78ff"
     transform="translate(0.03475155,545.90448)" />
  <polygon
     points="876,244.85 901.96,225.51 895.51,235.51 "
     id="polygon2089"
     style="opacity:0.1"
     transform="translate(0.03475155,545.90448)" />
  <path
     d="m 905.20475,833.12448 -0.75,2.41 h -7.78 l -0.58,-1.63 a 6.49,6.49 0 0 1 5,-1.88 7.51,7.51 0 0 1 4.11,1.1 z"
     id="path2091"
     inkscape:connector-curvature="0"
     style="opacity:0.1" />
  <path
     d="m 901.81475,836.35448 v 4.28 a 5.85,5.85 0 0 1 -0.73,0 8.93,8.93 0 0 1 -2,-0.24 v -4.08 z"
     id="path2093"
     inkscape:connector-curvature="0"
     style="opacity:0.1" />
  <ellipse
     cx="901.08472"
     cy="836.35449"
     rx="5.54"
     ry="3.29"
     id="ellipse2095"
     style="fill:#3f3d56" />
  <path
     d="m 652.25475,1123.8545 c 0,0 -66.66,-2.81 -73.66,-133.27002 -7,-130.46 62.43,-152.56 62.43,-152.56 0,0 22,-12.29 31.75,-12.8 9.75,-0.51 42.36,2.57 42.36,2.57 l -35.94,-6.94 c 0,0 50.58,-19.25 65.72,-20.79 l -54.67,11.52 c 0,0 -0.77,-30.29 12.32,-40.31 0,0 -11.16,-0.83 -17.11,21 a 41.71,41.71 0 0 1 -25,28 c -20.29,7.91 -48.33,20.4 -54.71,31.09 0,0 -11.81,12.33 -10,-19.76 1.81,-32.09 10.27,-59.57 13.35,-60.34 0,0 24.14,-25.67 58,-27.21 0,0 -19.76,-8 -53.14,16.95 0,0 -2.82,-12.58 9.76,-27.47 12.58,-14.89 32.09,-46.22 53.4,-49.55 0,0 -29.78,-1.8 -53.4,36.71 0,0 -8.73,5.65 -9.5,-8.73 -0.77,-14.38 -5.91,-32.35 -5.91,-32.35 0,0 -7.19,33.12 8,48 0,0 -29,37.74 -27.72,80.1 0,0 -9,19.26 -12.33,-3.34 0,0 -1.93,-31.11 -5.79,-57.5 a 78.16,78.16 0 0 1 16.39,-60.29 c 6.41,-8 10.88,-15.74 8.4,-19.81 l -33.63,40 c 0,0 -28.24,-65.47 -48.78,-79.59 -20.54,-14.12 -23.11,-17.2 -23.11,-17.2 l 33.12,38.76 -41.59,-14.63 41.59,19.26 c 0,0 19.26,15.66 30.3,58.53 11.04,42.87 12.06,69.68 12.06,69.68 0,0 -59.3,-47 -70.6,-45.44 l 38.38,29 a 91.4,91.4 0 0 1 36.07,66.73 v 0 c 0,0 -74.19,-19 -92.16,-22.59 l -33.89,-34.66 25.67,32.86 -52.88,-0.77 -30.3,-21.56 c 0,0 23.88,20 21.57,21.31 -2.31,1.31 -37.23,2.82 -37.23,2.82 0,0 88.83,-0.51 98.59,5.91 9.76,6.42 31.57,8.72 31.57,8.72 l -62.9,9.5 75,-5.39 c 0,0 56.74,10.27 59.82,28 0,0 -11.56,30.14 -19.26,42.1 -6.39,9.93 -19.25,42.1 -21.82,70.34 -2.57,28.24 -6.16,71.63002 3.6,98.07002 9.76,26.44 13.34,41.59 8.47,49.55 -4.87,7.96 -9.5,18.23 6.42,20.28 15.92,2.05 85.74,-1 85.74,-1 0,0 21.29,4.22 17.18,-11.51 z"
     id="path2097"
     inkscape:connector-curvature="0"
     style="fill:#3f3d56" />
  <path
     d="m 614.93475,1109.8445 a 33.51,33.51 0 0 0 -22.62,-2.83 c -13.08,2.83 -33.1,1.33 -34.93,1"
     id="path2099"
     inkscape:connector-curvature="0"
     style="opacity:0.1" />
  <path
     d="m 573.10475,956.10448 c 0,0 -3.18,50.19002 2.48,60.08002 z"
     id="path2101"
     inkscape:connector-curvature="0"
     style="opacity:0.1" />
  <path
     d="m 561.36475,1016.1845 c 0,0 4.08,47 6.9,56.19 2.82,9.19 -6.9,-56.19 -6.9,-56.19 z"
     id="path2103"
     inkscape:connector-curvature="0"
     style="opacity:0.1" />
  <path
     d="m 557.38475,900.58448 c -2.88,1.06 -15.25,26.15 -12.78,33.57 2.47,7.42 12.78,-33.57 12.78,-33.57 z"
     id="path2105"
     inkscape:connector-curvature="0"
     style="opacity:0.1" />
  <path
     d="m 588.75475,874.58448 c -1.35,0.61 -7.1,15.06 -5.95,19.34 1.15,4.28 5.95,-19.34 5.95,-19.34 z"
     id="path2107"
     inkscape:connector-curvature="0"
     style="opacity:0.1" />
  <path
     d="m 535.19475,958.85448 c 1.42,14.57 2.2,24.11 1.29,35.77 a 138.83,138.83 0 0 0 0.39,27.22002"
     id="path2109"
     inkscape:connector-curvature="0"
     style="opacity:0.1" />
  <path
     d="m 690.07475,789.16448 a 11.71,11.71 0 0 0 -2.41,7.39 c -0.09,2.64 0.26,5.29 0.08,7.92 -0.18,2.78 -1.5,6 -4.25,6.4"
     id="path2111"
     inkscape:connector-curvature="0"
     style="opacity:0.1" />
  <path
     d="m 642.66475,702.28448 a 67,67 0 0 0 -9.29,11.53 26.62,26.62 0 0 1 -2.64,3.75 42.62,42.62 0 0 1 -5.09,4.17 24,24 0 0 0 -8.12,12.74"
     id="path2113"
     inkscape:connector-curvature="0"
     style="opacity:0.1" />
  <path
     d="m 508.46475,627.26448 a 16.55,16.55 0 0 0 3.29,4.41 c 1.17,1.11 2.49,2 3.55,3.25 a 27.36,27.36 0 0 1 2.27,3.35 91.88,91.88 0 0 0 9.49,12"
     id="path2115"
     inkscape:connector-curvature="0"
     style="opacity:0.1" />
  <path
     d="m 570.59475,701.58448 c -2.21,1.38 -2.79,4.34 -2.74,7 0.05,2.66 0.49,5.32 -0.48,7.74 -0.44,1.11 -1.15,2.08 -1.61,3.17 a 14.78,14.78 0 0 0 -0.77,6 q 0.06,3.56 0.22,7.09 c 0.12,2.85 0.39,5.93 2.32,8"
     id="path2117"
     inkscape:connector-curvature="0"
     style="opacity:0.1" />
  <path
     d="m 552.01475,775.19448 a 30.51,30.51 0 0 1 5.76,4 10.36,10.36 0 0 1 3.35,6 c 0.13,1 0.06,2 0.28,3 a 9.4,9.4 0 0 0 2,3.61 49.59,49.59 0 0 0 4.86,5.38"
     id="path2119"
     inkscape:connector-curvature="0"
     style="fill:none" />
  <path
     d="m 568.78475,842.21448 a 36.31,36.31 0 0 0 -4.65,-3.22 19.42,19.42 0 0 0 -4.78,-2.1 c -2.56,-0.68 -5.25,-0.58 -7.88,-0.85 -2.63,-0.27 -5.39,-1 -7.19,-2.95"
     id="path2121"
     inkscape:connector-curvature="0"
     style="opacity:0.1" />
  <path
     d="m 464.39475,809.78448 c 3.12,0.09 6.37,0.2 9.14,1.63 1.42,0.73 2.65,1.77 4.05,2.55 a 12.26,12.26 0 0 0 5.89,1.54"
     id="path2123"
     inkscape:connector-curvature="0"
     style="opacity:0.1" />
  <path
     d="m 507.70475,822.67448 a 1.74,1.74 0 0 0 -2.24,0.52 c -0.56,0.64 -0.87,1.47 -1.44,2.1 -1.14,1.23 -3,1.37 -4.68,1.43"
     id="path2125"
     inkscape:connector-curvature="0"
     style="opacity:0.1" />
  <path
     d="m 525.59475,756.32448 3,1.57 a 52.61,52.61 0 0 1 8.85,5.4"
     id="path2127"
     inkscape:connector-curvature="0"
     style="opacity:0.1" />
  <path
     d="m 559.86475,785.67448 c 2,-0.47 3.68,1.64 4,3.63 0.32,1.99 -0.06,4.1 0.51,6 a 11.25,11.25 0 0 0 3,4.44"
     id="path2129"
     inkscape:connector-curvature="0"
     style="opacity:0.1" />
  <path
     d="m 593.26475,789.34448 c 1.79,5.36 -2,11.21 -0.9,16.75 0.34,1.69 1.12,3.26 1.52,4.93 1,4.41 -0.75,9.11 -3.63,12.61"
     id="path2131"
     inkscape:connector-curvature="0"
     style="opacity:0.1" />
  <polygon
     points="294.97,602.01 293.43,602.01 293.43,623.09 294.97,626.37 "
     id="polygon2133"
     style="fill:#3f3d56"
     transform="translate(0.03475155,545.90448)" />
  <polygon
     points="192.61,602.01 194.15,602.01 194.15,623.09 192.61,626.37 "
     id="polygon2135"
     style="fill:#3f3d56"
     transform="translate(0.03475155,545.90448)" />
  <rect
     x="200.39474"
     y="1103.1544"
     width="4.2600002"
     height="29.950001"
     id="rect2137"
     style="fill:#3f3d56" />
  <rect
     x="286.07477"
     y="1103.1544"
     width="4.2600002"
     height="29.950001"
     id="rect2139"
     style="fill:#3f3d56" />
  <g
     id="g2145"
     style="opacity:0.1"
     transform="translate(0.03475155,545.90448)">
    <rect
       x="200.36"
       y="557.25"
       width="4.2600002"
       height="29.950001"
       id="rect2141" />
    <rect
       x="286.04001"
       y="557.25"
       width="4.2600002"
       height="29.950001"
       id="rect2143" />
  </g>
  <rect
     x="200.39474"
     y="1103.1544"
     width="4.2600002"
     height="3.49"
     id="rect2147"
     style="opacity:0.1" />
  <rect
     x="286.07477"
     y="1103.1544"
     width="4.2600002"
     height="3.49"
     id="rect2149"
     style="opacity:0.1" />
  <rect
     x="193.83475"
     y="1101.8944"
     width="102.57"
     height="4.4699998"
     id="rect2151"
     style="fill:#3f3d56" />
  <rect
     x="200.39474"
     y="1108.2544"
     width="4.2600002"
     height="4.4699998"
     id="rect2153"
     style="opacity:0.1" />
  <rect
     x="286.07477"
     y="1108.2544"
     width="4.2600002"
     height="4.4699998"
     id="rect2155"
     style="opacity:0.1" />
  <rect
     x="193.83475"
     y="1107.9745"
     width="102.57"
     height="4.4699998"
     id="rect2157"
     style="fill:#3f3d56" />
  <rect
     x="200.39474"
     y="1114.3245"
     width="4.2600002"
     height="4.4699998"
     id="rect2159"
     style="opacity:0.1" />
  <rect
     x="286.07477"
     y="1114.3245"
     width="4.2600002"
     height="4.4699998"
     id="rect2161"
     style="opacity:0.1" />
  <rect
     x="193.83475"
     y="1114.0443"
     width="102.57"
     height="4.4699998"
     id="rect2163"
     style="fill:#3f3d56" />
  <rect
     x="200.39474"
     y="1120.4044"
     width="4.2600002"
     height="4.4699998"
     id="rect2165"
     style="opacity:0.1" />
  <rect
     x="286.07477"
     y="1120.4044"
     width="4.2600002"
     height="4.4699998"
     id="rect2167"
     style="opacity:0.1" />
  <rect
     x="193.83475"
     y="1120.1244"
     width="102.57"
     height="4.4699998"
     id="rect2169"
     style="fill:#3f3d56" />
  <rect
     x="200.39474"
     y="1126.4745"
     width="4.2600002"
     height="4.4699998"
     id="rect2171"
     style="opacity:0.1" />
  <rect
     x="286.07477"
     y="1126.4745"
     width="4.2600002"
     height="4.4699998"
     id="rect2173"
     style="opacity:0.1" />
  <rect
     x="193.83475"
     y="1126.1945"
     width="102.57"
     height="4.4699998"
     id="rect2175"
     style="fill:#3f3d56" />
  <g
     id="g2197"
     style="opacity:0.1"
     transform="translate(0.03475155,545.90448)">
    <circle
       cx="202.49001"
       cy="558.51001"
       r="0.62"
       id="circle2177" />
    <circle
       cx="202.49001"
       cy="564.58002"
       r="0.62"
       id="circle2179" />
    <circle
       cx="202.49001"
       cy="570.65997"
       r="0.62"
       id="circle2181" />
    <circle
       cx="202.49001"
       cy="576.72998"
       r="0.62"
       id="circle2183" />
    <circle
       cx="202.49001"
       cy="582.81"
       r="0.62"
       id="circle2185" />
    <circle
       cx="288.17001"
       cy="558.51001"
       r="0.62"
       id="circle2187" />
    <circle
       cx="288.17001"
       cy="564.58002"
       r="0.62"
       id="circle2189" />
    <circle
       cx="288.17001"
       cy="570.65997"
       r="0.62"
       id="circle2191" />
    <circle
       cx="288.17001"
       cy="576.72998"
       r="0.62"
       id="circle2193" />
    <circle
       cx="288.17001"
       cy="582.81"
       r="0.62"
       id="circle2195" />
  </g>
  <circle
     cx="202.52475"
     cy="1104.1344"
     r="0.62"
     id="circle2199"
     style="fill:#3f3d56" />
  <circle
     cx="202.52475"
     cy="1110.2045"
     r="0.62"
     id="circle2201"
     style="fill:#3f3d56" />
  <circle
     cx="202.52475"
     cy="1116.2844"
     r="0.62"
     id="circle2203"
     style="fill:#3f3d56" />
  <circle
     cx="202.52475"
     cy="1122.3545"
     r="0.62"
     id="circle2205"
     style="fill:#3f3d56" />
  <circle
     cx="202.52475"
     cy="1128.4344"
     r="0.62"
     id="circle2207"
     style="fill:#3f3d56" />
  <circle
     cx="202.52475"
     cy="1104.1344"
     r="0.62"
     id="circle2209"
     style="fill:#3f3d56" />
  <circle
     cx="202.52475"
     cy="1110.2045"
     r="0.62"
     id="circle2211"
     style="fill:#3f3d56" />
  <circle
     cx="202.52475"
     cy="1116.2844"
     r="0.62"
     id="circle2213"
     style="fill:#3f3d56" />
  <circle
     cx="202.52475"
     cy="1122.3545"
     r="0.62"
     id="circle2215"
     style="fill:#3f3d56" />
  <circle
     cx="202.52475"
     cy="1128.4344"
     r="0.62"
     id="circle2217"
     style="fill:#3f3d56" />
  <circle
     cx="288.20477"
     cy="1104.1344"
     r="0.62"
     id="circle2219"
     style="fill:#3f3d56" />
  <circle
     cx="288.20477"
     cy="1110.2045"
     r="0.62"
     id="circle2221"
     style="fill:#3f3d56" />
  <circle
     cx="288.20477"
     cy="1116.2844"
     r="0.62"
     id="circle2223"
     style="fill:#3f3d56" />
  <circle
     cx="288.20477"
     cy="1122.3545"
     r="0.62"
     id="circle2225"
     style="fill:#3f3d56" />
  <circle
     cx="288.20477"
     cy="1128.4344"
     r="0.62"
     id="circle2227"
     style="fill:#3f3d56" />
  <g
     id="g2259"
     style="opacity:0.1"
     transform="translate(0.03475155,545.90448)">
    <circle
       cx="202.49001"
       cy="558.22998"
       r="0.62"
       id="circle2229" />
    <circle
       cx="202.49001"
       cy="564.29999"
       r="0.62"
       id="circle2231" />
    <circle
       cx="202.49001"
       cy="570.38"
       r="0.62"
       id="circle2233" />
    <circle
       cx="202.49001"
       cy="576.45001"
       r="0.62"
       id="circle2235" />
    <circle
       cx="202.49001"
       cy="582.53003"
       r="0.62"
       id="circle2237" />
    <circle
       cx="202.49001"
       cy="558.22998"
       r="0.62"
       id="circle2239" />
    <circle
       cx="202.49001"
       cy="564.29999"
       r="0.62"
       id="circle2241" />
    <circle
       cx="202.49001"
       cy="570.38"
       r="0.62"
       id="circle2243" />
    <circle
       cx="202.49001"
       cy="576.45001"
       r="0.62"
       id="circle2245" />
    <circle
       cx="202.49001"
       cy="582.53003"
       r="0.62"
       id="circle2247" />
    <circle
       cx="288.17001"
       cy="558.22998"
       r="0.62"
       id="circle2249" />
    <circle
       cx="288.17001"
       cy="564.29999"
       r="0.62"
       id="circle2251" />
    <circle
       cx="288.17001"
       cy="570.38"
       r="0.62"
       id="circle2253" />
    <circle
       cx="288.17001"
       cy="576.45001"
       r="0.62"
       id="circle2255" />
    <circle
       cx="288.17001"
       cy="582.53003"
       r="0.62"
       id="circle2257" />
  </g>
  <polygon
     points="193.8,585.95 296.36,585.95 298.74,588.95 191.35,588.95 "
     id="polygon2261"
     style="fill:#3f3d56"
     transform="translate(0.03475155,545.90448)" />
  <polygon
     points="191.21,589.23 299.16,589.23 302.51,593.63 187.3,593.35 "
     id="polygon2263"
     style="fill:#3f3d56"
     transform="translate(0.03475155,545.90448)" />
  <polygon
     points="186.95,593.77 302.79,593.91 306.14,598.03 183.18,598.03 "
     id="polygon2265"
     style="fill:#3f3d56"
     transform="translate(0.03475155,545.90448)" />
  <polygon
     points="199.8,602.01 201.87,602.01 201.87,610.8 200.36,613.74 199.86,603.26 "
     id="polygon2267"
     style="fill:#3f3d56"
     transform="translate(0.03475155,545.90448)" />
  <polygon
     points="286.05,602.01 288.12,602.01 288.06,603.26 287.56,613.74 286.05,610.8 "
     id="polygon2269"
     style="fill:#3f3d56"
     transform="translate(0.03475155,545.90448)" />
  <rect
     x="196.48474"
     y="1147.2145"
     width="3.9100001"
     height="12.43"
     id="rect2271"
     style="fill:#3f3d56" />
  <rect
     x="287.60477"
     y="1147.2145"
     width="3.9100001"
     height="12.43"
     id="rect2273"
     style="fill:#3f3d56" />
  <polygon
     points="201.87,603.26 196.45,603.26 196.45,601.31 200.36,601.31 200.36,602.01 201.87,602.01 "
     id="polygon2275"
     style="opacity:0.1"
     transform="translate(0.03475155,545.90448)" />
  <rect
     x="196.48474"
     y="1147.2145"
     width="3.9100001"
     height="12.43"
     id="rect2277"
     style="opacity:0.1" />
  <rect
     x="287.60477"
     y="1147.2145"
     width="3.9100001"
     height="12.43"
     id="rect2279"
     style="opacity:0.1" />
  <polygon
     points="286.05,603.26 286.05,602.01 287.56,602.01 287.56,601.31 291.48,601.31 291.48,603.26 "
     id="polygon2281"
     style="opacity:0.1"
     transform="translate(0.03475155,545.90448)" />
  <rect
     x="191.38475"
     y="1145.8145"
     width="105.01"
     height="3.0699999"
     id="rect2283"
     style="fill:#3f3d56" />
  <rect
     x="191.38475"
     y="1145.8145"
     width="105.01"
     height="3.0699999"
     id="rect2285"
     style="opacity:0.1" />
  <rect
     x="188.17474"
     y="1145.2544"
     width="4.4699998"
     height="27.02"
     id="rect2287"
     style="fill:#3f3d56" />
  <rect
     x="-299.47476"
     y="-1172.2745"
     width="4.4699998"
     height="27.02"
     transform="scale(-1)"
     id="rect2289"
     style="fill:#3f3d56" />
  <rect
     x="188.17474"
     y="1145.2544"
     width="4.4699998"
     height="27.02"
     id="rect2291"
     style="opacity:0.1" />
  <rect
     x="-299.47476"
     y="-1172.2745"
     width="4.4699998"
     height="27.02"
     transform="scale(-1)"
     id="rect2293"
     style="opacity:0.1" />
  <rect
     x="191.38475"
     y="1145.8145"
     width="105.01"
     height="0.28"
     id="rect2295"
     style="opacity:0.1" />
  <circle
     cx="190.14474"
     cy="1147.4945"
     r="0.62"
     id="circle2297"
     style="opacity:0.1" />
  <circle
     cx="297.60477"
     cy="1147.4044"
     r="0.62"
     id="circle2299"
     style="opacity:0.1" />
  <polygon
     points="183.18,598.97 306.14,598.97 306.14,598.03 305.22,596.89 184.19,596.89 183.18,598.03 "
     id="polygon2301"
     style="fill:#3f3d56"
     transform="translate(0.03475155,545.90448)" />
  <rect
     x="183.21474"
     y="1143.9344"
     width="122.95"
     height="1.89"
     id="rect2303"
     style="fill:#3f3d56" />
  <path
     d="m 493.87475,1094.9245 a 10.28,10.28 0 0 0 -1.34,2.54 c -0.09,0.22 -0.17,0.47 -0.25,0.71 a 2.6,2.6 0 0 0 -0.47,-0.16 6.77,6.77 0 0 0 -2.11,-0.18 c 0,-0.27 0,-0.56 0,-0.87 0.09,-3.12 -0.28,-7.46 -3.25,-5.62 -2.97,1.84 -0.82,4.72 1,6.63 l 0.47,0.46 c -1.68,1.21 -2,4 -2.28,6.89 -0.28,2.89 -2.74,6.08 -4.38,7.89 l -0.46,0.5 a 6,6 0 0 0 -4.76,-1.22 c -0.07,-0.26 -0.14,-0.52 -0.22,-0.8 -1.33,-4.79 -4.08,-13.08 -7.59,-14.89 0.15,-0.19 0.31,-0.38 0.46,-0.59 1.5,-2 3.17,-4.84 0.69,-5.59 -2.48,-0.75 -2.7,2.52 -2.56,5 0,0.31 0,0.6 0.07,0.87 a 3.61,3.61 0 0 0 -2.59,1.27 l -0.39,-0.46 c -2,-2.37 -5.69,-6.13 -6.81,-3.29 -1,2.65 2.21,6.1 4.49,8.09 l 0.14,0.12 c -1.53,6.22 5.16,11.29 8.76,13.51 l 0.47,0.29 c -5,5.85 -8,16.83 -8,16.83 l 13.92,2.49 c 0,0 9.22,-8 8,-15.44 h 0.1 c 9.22,-1.85 11.32,-11.68 9.88,-17.52 l 0.16,-0.06 a 10.53,10.53 0 0 0 4.27,-3.23 c 2.64,-3.64 -2.77,-7.69 -5.42,-4.17 z"
     id="path2305"
     inkscape:connector-curvature="0"
     style="fill:#3f3d56" />
  <path
     d="m 493.87475,1094.9245 a 10.28,10.28 0 0 0 -1.34,2.54 c -0.09,0.22 -0.17,0.47 -0.25,0.71 a 2.6,2.6 0 0 0 -0.47,-0.16 6.77,6.77 0 0 0 -2.11,-0.18 c 0,-0.27 0,-0.56 0,-0.87 0.09,-3.12 -0.28,-7.46 -3.25,-5.62 -2.97,1.84 -0.82,4.72 1,6.63 l 0.47,0.46 c -1.68,1.21 -2,4 -2.28,6.89 -0.28,2.89 -2.74,6.08 -4.38,7.89 l -0.46,0.5 a 6,6 0 0 0 -4.76,-1.22 c -0.07,-0.26 -0.14,-0.52 -0.22,-0.8 -1.33,-4.79 -4.08,-13.08 -7.59,-14.89 0.15,-0.19 0.31,-0.38 0.46,-0.59 1.5,-2 3.17,-4.84 0.69,-5.59 -2.48,-0.75 -2.7,2.52 -2.56,5 0,0.31 0,0.6 0.07,0.87 a 3.61,3.61 0 0 0 -2.59,1.27 l -0.39,-0.46 c -2,-2.37 -5.69,-6.13 -6.81,-3.29 -1,2.65 2.21,6.1 4.49,8.09 l 0.14,0.12 c -1.53,6.22 5.16,11.29 8.76,13.51 l 0.47,0.29 c -5,5.85 -8,16.83 -8,16.83 l 13.92,2.49 c 0,0 9.22,-8 8,-15.44 h 0.1 c 9.22,-1.85 11.32,-11.68 9.88,-17.52 l 0.16,-0.06 a 10.53,10.53 0 0 0 4.27,-3.23 c 2.64,-3.64 -2.77,-7.69 -5.42,-4.17 z"
     id="path2307"
     inkscape:connector-curvature="0"
     style="opacity:0.1" />
  <path
     d="m 466.17475,1098.9345 -1.58,4.76 c 0,0 -0.91,-0.64 -2,-1.64 -2.28,-2 -5.53,-5.44 -4.49,-8.09 1.12,-2.84 4.81,0.92 6.82,3.29 0.72,0.95 1.25,1.68 1.25,1.68 z"
     id="path2309"
     inkscape:connector-curvature="0"
     style="fill:#3f3d56" />
  <path
     d="m 469.59475,1096.2145 a 22.25,22.25 0 0 1 -1.59,1.87 c 0,0 -0.2,-1.13 -0.29,-2.51 -0.13,-2.43 0.12,-5.67 2.57,-5 2.45,0.67 0.82,3.69 -0.69,5.64 z"
     id="path2311"
     inkscape:connector-curvature="0"
     style="fill:#3f3d56" />
  <path
     d="m 490.59475,1096.9645 c -0.05,1.57 -0.2,2.82 -0.2,2.82 a 20.52,20.52 0 0 1 -2,-1.81 c -1.84,-1.91 -3.88,-4.86 -1,-6.63 2.88,-1.77 3.29,2.5 3.2,5.62 z"
     id="path2313"
     inkscape:connector-curvature="0"
     style="fill:#3f3d56" />
  <path
     d="m 500.20475,1099.0245 a 10.47,10.47 0 0 1 -4.27,3.23 13.71,13.71 0 0 1 -1.43,0.52 l -1.91,-2.7 a 19.48,19.48 0 0 1 0.79,-2.61 10.28,10.28 0 0 1 1.34,-2.54 c 2.65,-3.52 8.06,0.53 5.48,4.1 z"
     id="path2315"
     inkscape:connector-curvature="0"
     style="fill:#3f3d56" />
  <path
     d="m 464.83475,1097.2545 c 0.81,1 1.34,1.68 1.34,1.68 l -1.58,4.76 c 0,0 -0.91,-0.64 -2,-1.64 a 9.38,9.38 0 0 1 1.83,-4.18 c 0.07,-0.23 0.25,-0.43 0.41,-0.62 z"
     id="path2317"
     inkscape:connector-curvature="0"
     style="opacity:0.1" />
  <path
     d="m 469.59475,1096.2145 a 22.25,22.25 0 0 1 -1.59,1.87 c 0,0 -0.2,-1.13 -0.29,-2.51 a 3.32,3.32 0 0 1 1.88,0.64 z"
     id="path2319"
     inkscape:connector-curvature="0"
     style="opacity:0.1" />
  <path
     d="m 477.59475,1115.1245 -4,1.78 c 0,0 -0.89,-0.43 -2.16,-1.22 -4.25,-2.61 -12.8,-9.2 -7.07,-17 5.73,-7.8 10.52,6.16 12.4,13 0.54,2.04 0.83,3.44 0.83,3.44 z"
     id="path2321"
     inkscape:connector-curvature="0"
     style="fill:#3f3d56" />
  <path
     d="m 488.36475,1097.9745 a 3.33,3.33 0 0 1 2.23,-1 c -0.05,1.57 -0.2,2.82 -0.2,2.82 a 20.52,20.52 0 0 1 -2.03,-1.82 z"
     id="path2323"
     inkscape:connector-curvature="0"
     style="opacity:0.1" />
  <path
     d="m 495.93475,1102.2545 a 13.71,13.71 0 0 1 -1.43,0.52 l -1.91,-2.7 a 19.48,19.48 0 0 1 0.79,-2.61 c 1.21,0.72 2.15,2.52 2.55,4.79 z"
     id="path2325"
     inkscape:connector-curvature="0"
     style="opacity:0.1" />
  <path
     d="m 485.89475,1119.8345 c -0.22,0 -0.45,0.09 -0.68,0.12 -13.57,2.06 -4.48,-5.26 -4.48,-5.26 0,0 0.62,-0.56 1.44,-1.48 1.64,-1.81 4.1,-5 4.38,-7.89 0.43,-4.4 0.92,-8.52 6.11,-7.31 5.19,1.21 6.07,19.25 -6.77,21.82 z"
     id="path2327"
     inkscape:connector-curvature="0"
     style="fill:#3f3d56" />
  <path
     d="m 476.73475,1111.6945 c 0.57,2 0.88,3.43 0.88,3.43 l -4,1.78 c 0,0 -0.89,-0.43 -2.16,-1.22 1.54,-2.01 3.33,-3.53 5.28,-3.99 z"
     id="path2329"
     inkscape:connector-curvature="0"
     style="opacity:0.1" />
  <path
     d="m 485.89475,1119.8345 c -0.22,0 -0.45,0.09 -0.68,0.12 -13.57,2.06 -4.48,-5.26 -4.48,-5.26 0,0 0.62,-0.56 1.44,-1.48 a 9,9 0 0 1 3.72,6.62 z"
     id="path2331"
     inkscape:connector-curvature="0"
     style="opacity:0.1" />
  <path
     d="m 463.83475,1132.8045 c 0,0 7.6,-27.19 18.25,-18.81 10.65,8.38 -4.33,21.3 -4.33,21.3 z"
     id="path2333"
     inkscape:connector-curvature="0"
     style="fill:#3f3d56" />
  <circle
     cx="467.67477"
     cy="1102.9845"
     r="0.85000002"
     id="circle2335"
     style="opacity:0.1" />
  <circle
     cx="467.60477"
     cy="1106.9645"
     r="0.85000002"
     id="circle2337"
     style="opacity:0.1" />
  <circle
     cx="492.31476"
     cy="1103.7744"
     r="0.85000002"
     id="circle2339"
     style="opacity:0.1" />
  <circle
     cx="472.43475"
     cy="1124.1444"
     r="0.85000002"
     id="circle2341"
     style="opacity:0.1" />
  <circle
     cx="490.53476"
     cy="1110.3744"
     r="0.85000002"
     id="circle2343"
     style="opacity:0.1" />
  <circle
     cx="481.73477"
     cy="1119.1743"
     r="0.85000002"
     id="circle2345"
     style="opacity:0.1" />
  <circle
     cx="470.58475"
     cy="1104.6945"
     r="0.85000002"
     id="circle2347"
     style="opacity:0.1" />
  <circle
     cx="489.96475"
     cy="1106.3245"
     r="0.85000002"
     id="circle2349"
     style="opacity:0.1" />
  <circle
     cx="487.05475"
     cy="1112.9343"
     r="0.85000002"
     id="circle2351"
     style="opacity:0.1" />
  <circle
     cx="478.11475"
     cy="1123.5044"
     r="0.85000002"
     id="circle2353"
     style="opacity:0.1" />
  <circle
     cx="476.26477"
     cy="1119.3245"
     r="0.85000002"
     id="circle2355"
     style="opacity:0.1" />
  <circle
     cx="471.86475"
     cy="1109.8744"
     r="0.85000002"
     id="circle2357"
     style="opacity:0.1" />
  <circle
     cx="479.24475"
     cy="1127.3445"
     r="0.85000002"
     id="circle2359"
     style="opacity:0.1" />
  <circle
     cx="474.13477"
     cy="1128.4044"
     r="0.85000002"
     id="circle2361"
     style="opacity:0.1" />
  <path
     d="m 346.43475,1150.7245 c 0,0 15.8,-31.73 22.85,-33.11 z"
     id="path2363"
     inkscape:connector-curvature="0"
     style="fill:#3f3d56" />
  <path
     d="m 350.41475,1157.4645 c 0,0 15.8,-31.73 22.85,-33.11 z"
     id="path2365"
     inkscape:connector-curvature="0"
     style="fill:#3f3d56" />
  <path
     d="m 353.86475,1164.4645 c 0,0 15.79,-31.74 22.84,-33.11 z"
     id="path2367"
     inkscape:connector-curvature="0"
     style="fill:#3f3d56" />
  <path
     d="m 414.64475,1144.5845 c 0,0 15.8,-31.73 22.84,-33.11 z"
     id="path2369"
     inkscape:connector-curvature="0"
     style="fill:#3f3d56" />
  <path
     d="m 418.59475,1151.2745 c 0,0 15.8,-31.73 22.84,-33.11 z"
     id="path2371"
     inkscape:connector-curvature="0"
     style="fill:#3f3d56" />
  <path
     d="m 422.06475,1158.2745 c 0,0 15.8,-31.73 22.85,-33.11 z"
     id="path2373"
     inkscape:connector-curvature="0"
     style="fill:#3f3d56" />
  <path
     d="m 620.19475,1112.6645 c 0,0 15.79,-31.73 22.84,-33.1 z"
     id="path2375"
     inkscape:connector-curvature="0"
     style="fill:#3f3d56" />
  <path
     d="m 624.17475,1119.4145 c 0,0 15.79,-31.74 22.84,-33.11 z"
     id="path2377"
     inkscape:connector-curvature="0"
     style="fill:#3f3d56" />
  <path
     d="m 627.59475,1126.4045 c 0,0 15.79,-31.73 22.84,-33.1 z"
     id="path2379"
     inkscape:connector-curvature="0"
     style="fill:#3f3d56" />
  <path
     d="m 365.71475,1156.9045 c 0,0 -10.91,-33.72 -6.84,-39.64 z"
     id="path2381"
     inkscape:connector-curvature="0"
     style="fill:#3f3d56" />
  <path
     d="m 427.72475,1153.1645 c 0,0 -10.91,-33.72 -6.84,-39.63 z"
     id="path2383"
     inkscape:connector-curvature="0"
     style="fill:#3f3d56" />
  <path
     d="m 627.59475,1131.2445 c 0,0 -10.9,-33.72 -6.82,-39.66 z"
     id="path2385"
     inkscape:connector-curvature="0"
     style="fill:#3f3d56" />
  <path
     d="m 892.30475,1179.3145 c 0,0 -13.84,-24.51 -34.71,-31.58 a 42.61,42.61 0 0 1 -21.58,-16.15 71.25,71.25 0 0 1 -6.37,-11.46"
     stroke-miterlimit="10"
     id="path2387"
     inkscape:connector-curvature="0"
     style="fill:none;stroke:#3f3d56;stroke-width:2;stroke-miterlimit:10" />
  <path
     d="m 817.31475,1116.3545 c 2.37,2.31 13.43,4.69 13.43,4.69 0,0 -2.71,-11 -5.09,-13.29 a 6,6 0 1 0 -8.34,8.6 z"
     id="path2389"
     inkscape:connector-curvature="0"
     style="fill:#3f3d56" />
  <path
     d="m 822.79475,1135.4545 c 3.25,0.65 13.83,-3.37 13.83,-3.37 0,0 -8.25,-7.74 -11.5,-8.38 a 6,6 0 0 0 -2.33,11.75 z"
     id="path2391"
     inkscape:connector-curvature="0"
     style="fill:#3f3d56" />
  <path
     d="m 845.59475,1156.9645 c 3.13,-1.08 10.24,-9.89 10.24,-9.89 0,0 -11,-2.52 -14.16,-1.44 a 6,6 0 0 0 3.92,11.33 z"
     id="path2393"
     inkscape:connector-curvature="0"
     style="fill:#3f3d56" />
  <path
     d="m 866.47475,1169.3545 c 3.27,-0.54 11.76,-8 11.76,-8 0,0 -10.44,-4.35 -13.71,-3.81 a 6,6 0 1 0 2,11.82 z"
     id="path2395"
     inkscape:connector-curvature="0"
     style="fill:#3f3d56" />
  <path
     d="m 845.84475,1123.5045 c 0,3.31 -6,12.91 -6,12.91 0,0 -6,-9.59 -6,-12.9 a 6,6 0 1 1 12,0 z"
     id="path2397"
     inkscape:connector-curvature="0"
     style="fill:#3f3d56" />
  <path
     d="m 870.10475,1138.3045 c -1,3.16 -9.58,10.53 -9.58,10.53 0,0 -2.85,-11 -1.86,-14.11 a 6,6 0 0 1 11.44,3.58 z"
     id="path2399"
     inkscape:connector-curvature="0"
     style="fill:#3f3d56" />
  <path
     d="m 891.71475,1155.9345 c -0.45,3.28 -7.66,12 -7.66,12 0,0 -4.66,-10.31 -4.22,-13.59 a 6,6 0 0 1 11.88,1.6 z"
     id="path2401"
     inkscape:connector-curvature="0"
     style="fill:#3f3d56" />
  <path
     d="m 891.50475,1178.8345 c 0,0 -2.71,-28 -18.91,-42.93 a 42.69,42.69 0 0 1 -13.2,-23.53 71.6,71.6 0 0 1 -1.18,-13.06"
     stroke-miterlimit="10"
     id="path2403"
     inkscape:connector-curvature="0"
     style="fill:none;stroke:#3f3d56;stroke-width:2;stroke-miterlimit:10" />
  <path
     d="m 848.06475,1091.4045 c 1.24,3.07 10.39,9.74 10.39,9.74 0,0 2,-11.15 0.73,-14.22 a 6,6 0 0 0 -11.12,4.48 z"
     id="path2405"
     inkscape:connector-curvature="0"
     style="fill:#3f3d56" />
  <path
     d="m 845.73475,1110.5845 c 2.71,1.9 14,2.52 14,2.52 0,0 -4.4,-10.42 -7.1,-12.32 a 6,6 0 0 0 -6.9,9.8 z"
     id="path2407"
     inkscape:connector-curvature="0"
     style="fill:#3f3d56" />
  <path
     d="m 857.84475,1139.4545 c 3.3,0.28 13.37,-4.89 13.37,-4.89 0,0 -9.07,-6.77 -12.36,-7.05 a 6,6 0 1 0 -1,11.94 z"
     id="path2409"
     inkscape:connector-curvature="0"
     style="fill:#3f3d56" />
  <path
     d="m 871.93475,1159.2545 c 3.2,0.83 14,-2.56 14,-2.56 0,0 -7.79,-8.21 -11,-9 a 6,6 0 1 0 -3,11.6 z"
     id="path2411"
     inkscape:connector-curvature="0"
     style="fill:#3f3d56" />
  <path
     d="m 871.64475,1108.9845 c -1.34,3 -10.7,9.37 -10.7,9.37 0,0 -1.59,-11.2 -0.25,-14.23 a 6,6 0 1 1 10.95,4.86 z"
     id="path2413"
     inkscape:connector-curvature="0"
     style="fill:#3f3d56" />
  <path
     d="m 887.83475,1132.3445 c -2.19,2.49 -13,5.74 -13,5.74 0,0 1.83,-11.16 4,-13.65 a 6,6 0 0 1 9,7.91 z"
     id="path2415"
     inkscape:connector-curvature="0"
     style="fill:#3f3d56" />
  <path
     d="m 900.44475,1157.2145 c -1.73,2.82 -11.86,7.86 -11.86,7.86 0,0 -0.09,-11.32 1.65,-14.14 a 6,6 0 1 1 10.21,6.28 z"
     id="path2417"
     inkscape:connector-curvature="0"
     style="fill:#3f3d56" />
  <path
     d="m 277.90475,949.38448 c 0,0 18.72,-1.12 16.51,12 a 3.21,3.21 0 0 1 -1.66,3.38 c 0,0 0,-1 -1.92,-0.65 a 8.46,8.46 0 0 1 -2,0.1 4.2,4.2 0 0 1 -2.49,-1 v 0 c 0,0 -5.26,-2.17 -7.31,-10.77 0,0 -1.51,-1.88 -1.45,-2.36 l 3.16,1.35 a 5.69,5.69 0 0 0 -0.24,4.17 c 0,0 0.11,-4.09 0.71,-4 0.13,0 1.65,0.79 1.65,0.79 0,0 -1.86,4 -0.46,6.85 0,0 -0.53,-4.89 1,-6.56 l 2.22,1.29 c 0,0 -2.17,4.11 -0.7,7.45 0,0 -0.38,-5.13 1.17,-7.13 l 2,1.57 c 0,0 -2,4 -0.79,6.82 0,0 0.16,-6 1.23,-6.43 a 12.39,12.39 0 0 1 2,2.2 c 0,0 -1.4,2.93 -0.53,4.48 0,0 0.53,-4 1,-4 a 13.4,13.4 0 0 1 1.94,4.45 9.62,9.62 0 0 0 -1.52,-4.7 5.28,5.28 0 0 1 2.69,1.39 c 0,0 -0.27,-1.86 -3.12,-2 a 12.1,12.1 0 0 0 -1.84,-2.12 11.41,11.41 0 0 1 4.55,0.53 c 0,0 -1.51,-1.76 -5.07,-1 l -2,-1.63 c 0,0 3.73,-0.51 5.32,0.06 0,0 -1.83,-1.56 -5.85,-0.43 l -2.17,-1.29 a 19.48,19.48 0 0 1 5.08,-0.44 c 0,0 -2,-1.08 -5.72,0.09 l -1.55,-0.7 c 0,0 2.34,-0.45 3,-0.53 0.66,-0.08 0.72,-0.26 0.72,-0.26 a 8.14,8.14 0 0 0 -4.38,0.49 c 0,0 -3.24,-1.26 -3.18,-1.46 z"
     id="path2419"
     inkscape:connector-curvature="0"
     style="fill:#3f3d56" />
  <path
     d="m 368.53475,910.19448 c 0,0 18.72,-1.13 16.51,12 a 3.2,3.2 0 0 1 -1.66,3.37 c 0,0 0,-1 -1.92,-0.64 a 9.07,9.07 0 0 1 -2,0.09 4.22,4.22 0 0 1 -2.48,-1 v 0 c 0,0 -5.27,-2.18 -7.31,-10.78 0,0 -1.52,-1.88 -1.46,-2.36 l 3.16,1.35 a 5.66,5.66 0 0 0 -0.23,4.17 c 0,0 0.1,-4.09 0.71,-4 0.12,0 1.64,0.79 1.64,0.79 0,0 -1.85,4 -0.45,6.86 0,0 -0.53,-4.89 1,-6.57 l 2.23,1.3 c 0,0 -2.17,4.1 -0.7,7.44 0,0 -0.38,-5.13 1.16,-7.13 l 2,1.57 c 0,0 -2,4.05 -0.8,6.82 0,0 0.17,-6 1.24,-6.43 a 12.39,12.39 0 0 1 2,2.2 c 0,0 -1.4,2.93 -0.53,4.48 0,0 0.53,-4 1,-4 a 13.4,13.4 0 0 1 1.94,4.45 9.62,9.62 0 0 0 -1.52,-4.7 5.28,5.28 0 0 1 2.69,1.39 c 0,0 -0.27,-1.86 -3.12,-2 a 12.1,12.1 0 0 0 -1.84,-2.12 11.62,11.62 0 0 1 4.55,0.53 c 0,0 -1.51,-1.76 -5.07,-1 l -2,-1.63 c 0,0 3.73,-0.51 5.31,0.06 0,0 -1.82,-1.56 -5.85,-0.42 l -2.16,-1.3 a 19.44,19.44 0 0 1 5.07,-0.44 c 0,0 -2,-1.08 -5.71,0.09 l -1.55,-0.69 c 0,0 2.33,-0.46 3,-0.53 0.67,-0.07 0.72,-0.26 0.72,-0.26 a 8.08,8.08 0 0 0 -4.38,0.48 20.11,20.11 0 0 1 -3.19,-1.44 z"
     id="path2421"
     inkscape:connector-curvature="0"
     style="fill:#3f3d56" />
  <path
     d="m 429.31475,765.66448 c 0,0 18.73,-1.13 16.52,12 a 3.2,3.2 0 0 1 -1.66,3.37 c 0,0 0,-1 -1.92,-0.64 a 9.07,9.07 0 0 1 -2,0.09 4.25,4.25 0 0 1 -2.49,-1 v 0 c 0,0 -5.26,-2.18 -7.3,-10.78 0,0 -1.52,-1.87 -1.46,-2.36 l 3.16,1.35 a 5.68,5.68 0 0 0 -0.23,4.18 c 0,0 0.1,-4.09 0.71,-4 0.12,0 1.64,0.79 1.64,0.79 0,0 -1.86,4 -0.45,6.86 0,0 -0.54,-4.89 1,-6.57 l 2.23,1.3 c 0,0 -2.17,4.1 -0.7,7.44 0,0 -0.38,-5.13 1.16,-7.13 l 2,1.58 c 0,0 -2,4 -0.8,6.81 0,0 0.17,-6 1.24,-6.42 a 12.25,12.25 0 0 1 2,2.19 c 0,0 -1.4,2.93 -0.53,4.48 0,0 0.53,-4 1,-4 a 13.18,13.18 0 0 1 1.94,4.45 9.55,9.55 0 0 0 -1.51,-4.7 5.28,5.28 0 0 1 2.69,1.39 c 0,0 -0.27,-1.86 -3.12,-2 a 13,13 0 0 0 -1.84,-2.13 11.62,11.62 0 0 1 4.55,0.53 c 0,0 -1.51,-1.76 -5.07,-1 l -2,-1.62 c 0,0 3.73,-0.52 5.31,0.05 0,0 -1.82,-1.56 -5.85,-0.42 l -2.17,-1.3 a 20,20 0 0 1 5.08,-0.44 c 0,0 -2,-1.08 -5.71,0.09 l -1.55,-0.69 c 0,0 2.33,-0.46 3,-0.53 0.67,-0.07 0.72,-0.26 0.72,-0.26 a 8.08,8.08 0 0 0 -4.38,0.48 20.51,20.51 0 0 1 -3.21,-1.44 z"
     id="path2423"
     inkscape:connector-curvature="0"
     style="fill:#3f3d56" />
  <path
     d="m 483.82475,723.17448 c 0,0 18.72,-1.13 16.52,12 a 3.21,3.21 0 0 1 -1.67,3.37 c 0,0 0,-1 -1.92,-0.64 a 8.46,8.46 0 0 1 -2,0.1 4.26,4.26 0 0 1 -2.49,-1 v 0 c 0,0 -5.26,-2.17 -7.31,-10.77 0,0 -1.51,-1.88 -1.45,-2.36 l 3.09,1.31 a 5.66,5.66 0 0 0 -0.23,4.17 c 0,0 0.1,-4.09 0.71,-4 0.12,0 1.64,0.79 1.64,0.79 0,0 -1.86,4 -0.46,6.85 0,0 -0.53,-4.89 1,-6.57 l 2.22,1.3 c 0,0 -2.17,4.1 -0.7,7.45 0,0 -0.37,-5.13 1.17,-7.13 l 2,1.57 c 0,0 -2,4 -0.8,6.82 0,0 0.16,-6 1.23,-6.43 a 11.89,11.89 0 0 1 2,2.19 c 0,0 -1.39,2.94 -0.53,4.49 0,0 0.54,-4 1,-4 a 13.1,13.1 0 0 1 1.94,4.44 9.55,9.55 0 0 0 -1.51,-4.7 5.25,5.25 0 0 1 2.69,1.4 c 0,0 -0.28,-1.87 -3.13,-2 a 12.1,12.1 0 0 0 -1.84,-2.12 11.58,11.58 0 0 1 4.56,0.52 c 0,0 -1.52,-1.76 -5.08,-1 l -1.88,-1.64 c 0,0 3.74,-0.51 5.32,0 0,0 -1.82,-1.55 -5.85,-0.42 l -2.17,-1.3 a 19.65,19.65 0 0 1 5.08,-0.43 c 0,0 -2,-1.08 -5.71,0.09 l -1.55,-0.7 c 0,0 2.33,-0.46 3,-0.53 0.67,-0.07 0.72,-0.26 0.72,-0.26 a 8,8 0 0 0 -4.38,0.49 c 0,0 -3.28,-1.14 -3.23,-1.35 z"
     id="path2425"
     inkscape:connector-curvature="0"
     style="fill:#3f3d56" />
  <path
     d="m 601.27475,650.40448 c 0,0 6.65,17.54 -6.54,19.34 a 3.21,3.21 0 0 1 -3.71,-0.59 c 0,0 0.92,-0.32 0,-2 a 8.3,8.3 0 0 1 -0.69,-1.92 4.19,4.19 0 0 1 0.26,-2.65 v 0 c 0,0 0.51,-5.67 8.11,-10.18 0,0 1.34,-2 1.82,-2.09 l -0.35,3.42 a 5.68,5.68 0 0 0 -4.05,1 c 0,0 3.94,-1.12 4,-0.51 0,0.12 -0.26,1.8 -0.26,1.8 0,0 -4.34,-0.59 -6.68,1.6 0,0 4.51,-2 6.58,-1 l -0.58,2.51 c 0,0 -4.56,-0.85 -7.32,1.55 0,0 4.79,-1.89 7.15,-1 l -0.9,2.39 c 0,0 -4.46,-0.74 -6.74,1.27 0,0 5.75,-1.62 6.5,-0.73 a 12.37,12.37 0 0 1 -1.49,2.59 c 0,0 -3.22,-0.46 -4.44,0.82 0,0 4,-0.67 4.11,-0.26 a 13.25,13.25 0 0 1 -3.67,3.17 9.58,9.58 0 0 0 4,-2.84 5.3,5.3 0 0 1 -0.54,3 c 0,0 1.7,-0.81 1,-3.58 a 12.14,12.14 0 0 0 1.48,-2.39 11.51,11.51 0 0 1 0.85,4.5 c 0,0 1.23,-2 -0.59,-5.13 l 1,-2.38 c 0,0 1.6,3.41 1.53,5.09 0,0 0.94,-2.2 -1.34,-5.71 l 0.6,-2.45 a 19.38,19.38 0 0 1 1.92,4.71 c 0,0 0.44,-2.23 -1.78,-5.42 l 0.2,-1.69 c 0,0 1.13,2.09 1.41,2.72 0.28,0.63 0.46,0.61 0.46,0.61 a 8.06,8.06 0 0 0 -1.77,-4 20.11,20.11 0 0 1 0.46,-3.57 z"
     id="path2427"
     inkscape:connector-curvature="0"
     style="fill:#3f3d56" />
  <path
     d="m 941.84475,958.87448 c 0,0 18.72,-1.13 16.51,12 a 3.2,3.2 0 0 1 -1.66,3.37 c 0,0 0,-1 -1.92,-0.64 a 8.46,8.46 0 0 1 -2,0.1 4.26,4.26 0 0 1 -2.49,-1 v 0 c 0,0 -5.26,-2.17 -7.31,-10.77 0,0 -1.51,-1.88 -1.45,-2.36 l 3.16,1.35 a 5.66,5.66 0 0 0 -0.23,4.17 c 0,0 0.1,-4.09 0.71,-4 0.12,0 1.64,0.79 1.64,0.79 0,0 -1.86,4 -0.46,6.85 0,0 -0.53,-4.89 1,-6.57 l 2.22,1.3 c 0,0 -2.17,4.1 -0.7,7.45 0,0 -0.38,-5.13 1.17,-7.13 l 2,1.57 c 0,0 -2,4 -0.79,6.82 0,0 0.16,-6 1.23,-6.43 a 12.25,12.25 0 0 1 2,2.19 c 0,0 -1.39,2.94 -0.53,4.49 0,0 0.53,-4 1,-4 a 13.1,13.1 0 0 1 1.94,4.44 9.67,9.67 0 0 0 -1.51,-4.7 5.37,5.37 0 0 1 2.69,1.4 c 0,0 -0.28,-1.87 -3.13,-2 a 12.1,12.1 0 0 0 -1.84,-2.12 11.58,11.58 0 0 1 4.56,0.52 c 0,0 -1.52,-1.76 -5.08,-1 l -2,-1.62 c 0,0 3.73,-0.51 5.32,0.05 0,0 -1.82,-1.55 -5.85,-0.42 l -2.17,-1.3 a 19.65,19.65 0 0 1 5.08,-0.43 c 0,0 -2,-1.08 -5.71,0.09 l -1.55,-0.7 c 0,0 2.33,-0.46 3,-0.53 0.67,-0.07 0.72,-0.26 0.72,-0.26 a 8,8 0 0 0 -4.38,0.49 c 0,0 -3.25,-1.25 -3.19,-1.46 z"
     id="path2429"
     inkscape:connector-curvature="0"
     style="fill:#3f3d56" />
  <path
     d="m 358.68475,1003.5845 c 0,0 11.58,14.76 -0.47,20.4 a 3.2,3.2 0 0 1 -3.72,0.55 c 0,0 0.78,-0.58 -0.56,-1.94 a 9,9 0 0 1 -1.24,-1.62 4.24,4.24 0 0 1 -0.57,-2.63 v 0 c 0,0 -1.2,-5.56 4.71,-12.14 0,0 0.68,-2.31 1.11,-2.54 l 0.69,3.37 a 5.7,5.7 0 0 0 -3.57,2.18 c 0,0 3.43,-2.24 3.69,-1.68 0.06,0.11 0.29,1.8 0.29,1.8 0,0 -4.33,0.73 -5.9,3.52 0,0 3.72,-3.22 6,-2.88 l 0.2,2.56 c 0,0 -4.61,0.55 -6.53,3.66 0,0 4,-3.23 6.53,-3.09 l -0.14,2.55 c 0,0 -4.49,0.62 -6.06,3.22 0,0 5,-3.26 6,-2.64 a 11.91,11.91 0 0 1 -0.65,2.92 c 0,0 -3.2,0.52 -4,2.11 0,0 3.57,-1.82 3.83,-1.47 a 13.27,13.27 0 0 1 -2.55,4.12 9.61,9.61 0 0 0 3,-3.92 5.33,5.33 0 0 1 0.38,3 c 0,0 1.38,-1.29 -0.11,-3.73 a 12.26,12.26 0 0 0 0.7,-2.72 11.55,11.55 0 0 1 2.16,4 c 0,0 0.58,-2.25 -2.1,-4.72 l 0.21,-2.56 c 0,0 2.54,2.78 3,4.4 0,0 0.25,-2.38 -3,-5 l -0.17,-2.52 a 19.86,19.86 0 0 1 3.25,3.93 c 0,0 -0.25,-2.26 -3.33,-4.65 l -0.3,-1.67 c 0,0 1.7,1.66 2.14,2.18 0.44,0.52 0.63,0.44 0.63,0.44 a 8.08,8.08 0 0 0 -2.89,-3.32 c 0,0 -0.86,-3.41 -0.66,-3.47 z"
     id="path2431"
     inkscape:connector-curvature="0"
     style="fill:#3f3d56" />
  <path
     d="m 956.67475,894.42448 c 0,0 11.58,14.76 -0.47,20.41 a 3.2,3.2 0 0 1 -3.72,0.55 c 0,0 0.78,-0.58 -0.56,-1.95 a 9,9 0 0 1 -1.24,-1.62 4.21,4.21 0 0 1 -0.57,-2.62 v 0 c 0,0 -1.2,-5.57 4.71,-12.15 0,0 0.68,-2.31 1.11,-2.53 l 0.69,3.36 a 5.68,5.68 0 0 0 -3.57,2.19 c 0,0 3.43,-2.24 3.69,-1.69 0.06,0.11 0.29,1.8 0.29,1.8 0,0 -4.32,0.73 -5.9,3.52 0,0 3.72,-3.22 6,-2.88 l 0.2,2.57 c 0,0 -4.61,0.54 -6.53,3.66 0,0 4,-3.23 6.53,-3.1 l -0.14,2.55 c 0,0 -4.49,0.62 -6.06,3.23 0,0 5,-3.27 6,-2.64 a 11.85,11.85 0 0 1 -0.65,2.91 c 0,0 -3.2,0.52 -4,2.12 0,0 3.57,-1.83 3.84,-1.48 a 13.37,13.37 0 0 1 -2.56,4.12 9.61,9.61 0 0 0 3,-3.92 5.35,5.35 0 0 1 0.38,3 c 0,0 1.38,-1.29 -0.11,-3.72 a 12.26,12.26 0 0 0 0.7,-2.72 11.46,11.46 0 0 1 2.16,4 c 0,0 0.58,-2.24 -2.1,-4.72 l 0.21,-2.56 c 0,0 2.54,2.78 3,4.4 0,0 0.25,-2.38 -3,-5.05 l -0.17,-2.52 a 19.86,19.86 0 0 1 3.25,3.93 c 0,0 -0.25,-2.26 -3.33,-4.65 l -0.3,-1.67 c 0,0 1.7,1.66 2.15,2.18 0.45,0.52 0.62,0.44 0.62,0.44 a 8.14,8.14 0 0 0 -2.89,-3.32 c 0,0 -0.86,-3.35 -0.66,-3.43 z"
     id="path2433"
     inkscape:connector-curvature="0"
     style="fill:#3f3d56" />
  <path
     d="m 1005.5948,996.99448 c 0,0 2.2,18.63002 -11.00005,17.17002 a 3.2,3.2 0 0 1 -3.46,-1.47 c 0,0 1,-0.08 0.54,-2 a 8.94,8.94 0 0 1 -0.22,-2 4.25,4.25 0 0 1 0.88,-2.55 v 0 c 0,0 1.87,-5.37 10.34005,-7.91002 0,0 1.79,-1.62 2.28,-1.59 l -1.17,3.24 a 5.68,5.68 0 0 0 -4.18005,0 c 0,0 4.09005,-0.13 4.00005,0.48002 0,0.13 -0.7,1.69 -0.7,1.69 0,0 -4.07005,-1.63 -6.87005,-0.07 0,0 4.86005,-0.81 6.62005,0.66 l -1.17,2.3 c 0,0 -4.22005,-1.93 -7.47005,-0.27 0,0 5.1,-0.67 7.18005,0.75 l -1.45005,2.1 c 0,0 -4.15,-1.8 -6.85,-0.4 0,0 6,-0.18 6.48,0.86 a 12.5,12.5 0 0 1 -2.07,2.16 c 0,0 -3,-1.23 -4.51,-0.28 0,0 4,0.31 4.05,0.74 a 13.07,13.07 0 0 1 -4.33,2.19 9.63,9.63 0 0 0 4.61,-1.78 5.37,5.37 0 0 1 -1.24,2.77 c 0,0 1.85,-0.38 1.85,-3.24 0,0 1.91,-1.56 2,-2 a 11.59,11.59 0 0 1 -0.26,4.58 c 0,0 1.67005,-1.61 0.66005,-5.12 l 1.51,-2.08 c 0,0 0.72,3.7 0.25,5.31 0,0 1.45,-1.91 0.09,-5.87 l 1.17,-2.23 a 20,20 0 0 1 0.73,5 c 0,0 1,-2.06 -0.42,-5.7 l 0.61,-1.58 c 0,0 0.59,2.3 0.7,3 0.11,0.7 0.3,0.7 0.3,0.7 a 8,8 0 0 0 -0.74,-4.34 c 0,0 1.01,-3.27002 1.26,-3.22002 z"
     id="path2435"
     inkscape:connector-curvature="0"
     style="fill:#3f3d56" />
  <path
     d="m 1048.1848,1132.7345 a 11.08,11.08 0 0 0 3.6,-5.44 c 0.47,-2.16 -0.45,-4.75 -2.52,-5.54 -2.31,-0.89 -4.78,0.72 -6.66,2.34 -1.88,1.62 -4,3.46 -6.47,3.12 a 9.85,9.85 0 0 0 3,-9.22 4,4 0 0 0 -0.85,-1.88 c -1.29,-1.37 -3.61,-0.78 -5.15,0.3 -4.89,3.44 -6.25,10.08 -6.28,16.06 -0.49,-2.16 -0.08,-4.4 -0.09,-6.62 -0.01,-2.22 -0.62,-4.66 -2.49,-5.85 a 7.51,7.51 0 0 0 -3.78,-0.89 c -2.2,-0.08 -4.65,0.14 -6.15,1.75 -1.87,2 -1.38,5.35 0.24,7.55 1.62,2.2 4.09,3.57 6.36,5.09 a 14.19,14.19 0 0 1 4.55,4.34 5,5 0 0 1 0.34,0.77 h 13.77 a 38.55,38.55 0 0 0 8.58,-5.88 z"
     id="path2437"
     inkscape:connector-curvature="0"
     style="fill:#3f3d56" />
  <path
     d="m 778.87475,1143.8845 a 11,11 0 0 0 3.61,-5.43 c 0.46,-2.17 -0.46,-4.76 -2.52,-5.54 -2.32,-0.89 -4.79,0.71 -6.66,2.33 -1.87,1.62 -4,3.47 -6.48,3.13 a 9.85,9.85 0 0 0 3,-9.23 3.77,3.77 0 0 0 -0.85,-1.87 c -1.28,-1.37 -3.61,-0.78 -5.14,0.3 -4.89,3.44 -6.26,10.08 -6.28,16.06 -0.5,-2.16 -0.08,-4.41 -0.09,-6.62 -0.01,-2.21 -0.62,-4.66 -2.49,-5.85 a 7.44,7.44 0 0 0 -3.79,-0.89 c -2.2,-0.08 -4.64,0.14 -6.14,1.75 -1.87,2 -1.39,5.34 0.24,7.54 1.63,2.2 4.09,3.58 6.36,5.1 a 14.27,14.27 0 0 1 4.55,4.33 4.57,4.57 0 0 1 0.33,0.78 h 13.78 a 38.2,38.2 0 0 0 8.57,-5.89 z"
     id="path2439"
     inkscape:connector-curvature="0"
     style="fill:#3f3d56" />
  <path
     d="m 188.17475,1075.5845 c 0,0 4.26,-0.37 5.67,0.82 0,0 -4.82,1.25 -5.32,2.25 0,0 0.1,0.1 0.5,0 0.4,-0.1 2.94,-0.64 3.48,0 l 0.18,0.31 0.19,0.12 0.28,0.19 a 1,1 0 0 1 0.38,0.47 c 0.09,0.28 0.31,0 0.31,0 0,0 0.32,0.66 0.22,0.84 -0.1,0.18 0.31,0.63 0.31,0.63 v 2 l 0.16,-0.15 a 8.92,8.92 0 0 0 0.91,3.63 c 0,0 1.91,4.85 2.57,5.22 h 0.4 c 0,0 2.88,3.82 5.64,4.63 2.76,0.81 2.91,1.66 2.91,1.66 l -3.45,3.82 a 12.24,12.24 0 0 0 -1.94,0.31 25.39,25.39 0 0 0 3.6,0.13 l 2.66,-3.51 a 2.06,2.06 0 0 1 0.91,0.47 1.81,1.81 0 0 1 0.47,0.22 c 0.22,0.16 0.38,0 0.56,0.07 0.18,0.07 -1.41,2.75 -1.41,2.75 h -1.77 l 1.47,0.53 c 0.5,0.19 1.53,-0.44 1.53,-0.44 l 1.41,-2.56 0.57,0.5 v -0.35 c 0,0 0.59,0.35 0.84,0.29 0.25,-0.06 -0.31,-0.41 -0.31,-0.41 a 2.45,2.45 0 0 0 0.84,0 c 0.16,-0.09 -0.15,-0.6 -0.15,-0.6 v -0.37 c 0,0 -0.93,0 -0.81,-0.19 0.12,-0.19 0.46,-0.28 1.05,0 0.59,0.28 4.21,1.85 5.59,1.28 a 16.46,16.46 0 0 0 2.88,1.79 c 0.68,0.16 1.47,1.34 1.47,1.34 0,0 2.91,3 4.63,2.26 a 7.47,7.47 0 0 1 -0.78,-1.66 c -0.1,-0.53 -2.23,-2.25 -2.23,-2.25 0,0 4.51,1.06 4.51,0.75 0,0 2.25,1.28 2.38,1.28 0.13,0 0,-0.78 -1.22,-1.69 l 1.7,0.25 a 2,2 0 0 0 -1.39,-1.75 4.73,4.73 0 0 0 -1.56,-1.38 l -7.05,-3.91 c 0,0 0.69,-0.35 -0.09,-1.35 a 5.85,5.85 0 0 1 0.66,-0.18 c 0.4,-0.1 -3.16,-3.1 -3.26,-3.09 a 3.81,3.81 0 0 1 -1.12,-1.23 c -0.13,-0.38 -3.35,-2.26 -3.35,-2.26 0,0 -2.78,-0.19 -4.69,-4 -1.91,-3.81 -6.45,-4.23 -6.45,-4.23 0,0 -1.63,-8.07 -9.33,-5 -0.08,0.06 -5.35,0.34 -6.16,1.75 z"
     id="path2441"
     inkscape:connector-curvature="0"
     style="fill:#3f3d56" />
  <path
     d="m 684.68475,1027.5845 c -0.52,0.84 -2.09,0.34 -2.59,1.19 a 2.32,2.32 0 0 0 0,1.45 3.09,3.09 0 0 1 -3.91,3.12 5.25,5.25 0 0 1 -1.57,3.45 3.35,3.35 0 0 1 -3.87,-0.21 7.26,7.26 0 0 1 -2.29,-3.4 c -0.59,-1.57 -1,-3.35 -2.37,-4.36 -0.49,-0.37 -1.06,-0.6 -1.54,-1 a 6.46,6.46 0 0 1 -2,-3.46 35.8,35.8 0 0 0 -1.61,-4.85 7.25,7.25 0 0 0 -3.41,-3.66 c -1.45,-0.67 -3.13,-0.63 -4.64,-1.16 a 13.38,13.38 0 0 1 -3.14,-1.74 20.82,20.82 0 0 0 -3.94,-2.37 11.3,11.3 0 0 1 -2.32,-1.32 3.29,3.29 0 0 1 -1.8,-2.91 9.16,9.16 0 0 0 -1.29,-3.18 c -0.68,-1.26 -1.29,-2.48 -0.85,-3.77002 0.44,-1.29 1.8,-2.07 2.26,-3.33 a 7.63,7.63 0 0 0 0.17,-2.66 2.78,2.78 0 0 1 1,-2.39 c 1.17,-0.78 2.59,0.2 4,0.59 a 3.08,3.08 0 0 0 1.53,0.1 12.74,12.74 0 0 0 1.32,-0.56 c 2.19,-0.88 4.66,0.71 5.88,2.71 1.22,2 1.7,4.38 2.75,6.48002 a 5.23,5.23 0 0 0 1.63,2.06 2.46,2.46 0 0 0 2.5,0.29 l 1.2,2.69 c 0.61,1.38 1.24,2.75 1.86,4.13 0.79,1.76 1.71,3.66 3.48,4.44 0.79,0.34 1.67,0.41 2.48,0.69 a 5.37,5.37 0 0 1 3.46,4 9.83,9.83 0 0 0 0.32,1.8 c 0.68,1.83 3,2.24 4.73,3.2 a 6.65,6.65 0 0 1 2.4,2.34 1.49,1.49 0 0 1 0.17,1.6 z"
     id="path2443"
     inkscape:connector-curvature="0"
     style="fill:#3f3d56" />
  <path
     d="m 684.68475,1027.5845 c -0.52,0.84 -2.09,0.34 -2.59,1.19 a 2.32,2.32 0 0 0 0,1.45 3.09,3.09 0 0 1 -3.91,3.12 5.25,5.25 0 0 1 -1.57,3.45 3.35,3.35 0 0 1 -3.87,-0.21 7.26,7.26 0 0 1 -2.29,-3.4 c -0.59,-1.57 -1,-3.35 -2.37,-4.36 -0.49,-0.37 -1.06,-0.6 -1.54,-1 a 6.46,6.46 0 0 1 -2,-3.46 35.8,35.8 0 0 0 -1.61,-4.85 7.25,7.25 0 0 0 -3.41,-3.66 c -1.45,-0.67 -3.13,-0.63 -4.64,-1.16 a 13.38,13.38 0 0 1 -3.14,-1.74 20.82,20.82 0 0 0 -3.94,-2.37 11.3,11.3 0 0 1 -2.32,-1.32 3.29,3.29 0 0 1 -1.8,-2.91 9.16,9.16 0 0 0 -1.29,-3.18 c -0.68,-1.26 -1.29,-2.48 -0.85,-3.77002 0.44,-1.29 1.8,-2.07 2.26,-3.33 a 7.63,7.63 0 0 0 0.17,-2.66 2.78,2.78 0 0 1 1,-2.39 c 1.17,-0.78 2.59,0.2 4,0.59 a 3.08,3.08 0 0 0 1.53,0.1 12.74,12.74 0 0 0 1.32,-0.56 c 2.19,-0.88 4.66,0.71 5.88,2.71 1.22,2 1.7,4.38 2.75,6.48002 a 5.23,5.23 0 0 0 1.63,2.06 2.46,2.46 0 0 0 2.5,0.29 l 1.2,2.69 c 0.61,1.38 1.24,2.75 1.86,4.13 0.79,1.76 1.71,3.66 3.48,4.44 0.79,0.34 1.67,0.41 2.48,0.69 a 5.37,5.37 0 0 1 3.46,4 9.83,9.83 0 0 0 0.32,1.8 c 0.68,1.83 3,2.24 4.73,3.2 a 6.65,6.65 0 0 1 2.4,2.34 1.49,1.49 0 0 1 0.17,1.6 z"
     id="path2445"
     inkscape:connector-curvature="0"
     style="opacity:0.1" />
  <path
     d="m 647.14475,1007.6945 c 0,0 0.89,1.79 -1.74,1.83 -2.63,0.04 1.69,11.66 1.69,11.66 l 4.37,5.57 5.43,-2.94 0.31,-8.1 0.41,-4.9 c 0,0 -5.08,-1.65 -4.15,-3.84 0.93,-2.19 -6.32,0.72 -6.32,0.72 z"
     id="path2447"
     inkscape:connector-curvature="0"
     style="fill:#fbbebe" />
  <path
     d="m 662.91475,1055.0945 c 0,0 3.2,3.16 6.95,-1 l -2.88,-3.05 h -3.63 z"
     id="path2449"
     inkscape:connector-curvature="0"
     style="fill:#3f3d56" />
  <path
     d="m 668.65475,1051.5845 a 21.45,21.45 0 0 0 2.23,4.41 c 0.94,1 2.41,8.1 0.45,7.3 -1.96,-0.8 -5.71,-6.77 -5.93,-7.79 a 35.87,35.87 0 0 1 -0.31,-3.92 z"
     id="path2451"
     inkscape:connector-curvature="0"
     style="fill:#3f3d56" />
  <polygon
     points="655.88,516.41 647.18,516.23 640.61,523.04 657.89,523.71 "
     id="polygon2453"
     style="fill:#3f3d56"
     transform="translate(0.03475155,545.90448)" />
  <path
     d="m 646.29475,1081.0145 c -0.41,0.76 -0.25,3.4 -0.07,5.34 0.12,1.24 0.25,2.19 0.25,2.19 0,0 -6.46,2 -7.44,0.27 a 5.21,5.21 0 0 1 -0.41,-2.12 42.12,42.12 0 0 1 0.41,-6.53 c 0,0 -0.27,-5.92 -0.4,-6.5 0,-0.23 -0.14,-1 -0.22,-1.77 -0.11,-1.18 -0.23,-2.5 -0.23,-2.5 l 8.82,-4.68 c 0,0 0,0.87 0,2.22 -0.06,4.24 -0.2,13.14 -0.71,14.08 z"
     id="path2455"
     inkscape:connector-curvature="0"
     style="fill:#3f3d56" />
  <path
     d="m 646.69475,1122.2245 h -0.1 c -0.78,0 -5.2,0 -5.2,0 l -0.18,-0.21 a 3.66,3.66 0 0 1 -0.58,-3.53 24.77,24.77 0 0 0 0.89,-6.2 2.82,2.82 0 0 0 0.05,-1.6 2.86,2.86 0 0 1 -0.09,-1.47 3.6,3.6 0 0 0 -0.27,-1 3.07,3.07 0 0 1 0,-1.52 11.52,11.52 0 0 0 -0.45,-2.81 c -0.4,-1.15 -3.34,-14.92 -2.63,-16.57 0,0 6.24,-1.07 8.6,-0.26 l -0.31,10.69 c 0,0 -1.12,3.2 -0.18,4.05 0.94,0.85 0,3.48 0,3.48 0,0 -0.14,0.49 0.66,2.13 0.8,1.64 0,2.41 0,2.41 v 3.16 a 6.79,6.79 0 0 0 0.09,3.88 c 0.82,1.73 0.01,5.32 -0.3,5.37 z"
     id="path2457"
     inkscape:connector-curvature="0"
     style="fill:#3f3d56" />
  <path
     d="m 658.93475,1081.0145 c -0.41,0.76 -0.25,3.4 -0.07,5.34 0.12,1.24 0.25,2.19 0.25,2.19 0,0 -6.46,2 -7.44,0.27 a 5.21,5.21 0 0 1 -0.41,-2.12 42.12,42.12 0 0 1 0.41,-6.53 c 0,0 -0.27,-5.92 -0.4,-6.5 -0.07,-0.31 -0.2,-3.29 -0.3,-6 -0.08,-2.28 -0.15,-4.35 -0.15,-4.35 l 8.82,1.37 c 0,0 0,3.88 -0.11,7.86 -0.11,3.98 -0.27,7.86 -0.6,8.47 z"
     id="path2459"
     inkscape:connector-curvature="0"
     style="fill:#3f3d56" />
  <path
     d="m 659.33475,1122.2245 h -0.1 c -0.78,0 -5.2,0 -5.2,0 l -0.18,-0.21 a 3.66,3.66 0 0 1 -0.58,-3.53 24.77,24.77 0 0 0 0.89,-6.2 2.82,2.82 0 0 0 0,-1.6 2.86,2.86 0 0 1 -0.09,-1.47 3.6,3.6 0 0 0 -0.27,-1 3.07,3.07 0 0 1 0,-1.52 11.52,11.52 0 0 0 -0.45,-2.81 c -0.4,-1.15 -3.34,-14.92 -2.63,-16.57 0,0 6.24,-1.07 8.6,-0.26 l -0.31,10.69 c 0,0 -1.12,3.2 -0.18,4.05 0.94,0.85 0,3.48 0,3.48 0,0 -0.14,0.49 0.66,2.13 0.8,1.64 0,2.41 0,2.41 v 3.16 a 6.79,6.79 0 0 0 0.09,3.88 c 0.87,1.73 0.06,5.32 -0.25,5.37 z"
     id="path2461"
     inkscape:connector-curvature="0"
     style="fill:#3f3d56" />
  <circle
     cx="650.39471"
     cy="1003.4445"
     r="6.2800002"
     id="circle2463"
     style="opacity:0.1" />
  <circle
     cx="650.61475"
     cy="1003.2445"
     r="6.2800002"
     id="circle2465"
     style="fill:#fbbebe" />
  <path
     d="m 658.00475,1030.7345 a 26,26 0 0 0 -0.13,5.24 c 4.06,3.35 3.3,10.38 3.3,10.38 0,0 3.12,14.23 2.42,15.55 -0.7,1.32 1.51,9.22 1.51,9.22 a 38.77,38.77 0 0 1 -5.63,0.65 15.78,15.78 0 0 1 -2,-0.06 3.16,3.16 0 0 1 -2.42,-1 c -1.25,-2.18 -6.64,-5.44 -6.64,-5.44 0,0 -3.4,2.05 -6.58,3.91 -1,0.6 -2,1.18 -2.86,1.66 a 5.26,5.26 0 0 1 -2.23,0.61 c -3.78,0.28 -8.82,-2.09 -8,-2.92 1,-1 5.84,-19 5.84,-19 0,0 2.45,-11.14 4.59,-12.69 a 2.32,2.32 0 0 0 0.8,-1.12 c 0.73,-2 -0.49,-5.3 -0.49,-5.3 0,0 -6.9,-8.51 -6.59,-9 a 12.39,12.39 0 0 0 0.31,-3.11 c 0,0 0.85,-4.15 1.33,-6.15 0.48,-2 4,-2.5 5,-2.32 1,0.18 3.56,0 4.54,-0.8 0.98,-0.8 2.63,0.31 2.63,0.31 l 3.83,1.92 3.65,-2.15 c 0,0 3.66,0.19 4,0.68 0.34,0.49 5.12,1.42 5.12,1.42 2.45,1.65 2.36,9.49 2.36,9.49 0,0 -5.88,5.12 -7.08,7.75 a 9.22,9.22 0 0 0 -0.58,2.27 z"
     id="path2467"
     inkscape:connector-curvature="0"
     style="fill:#3f3d56" />
  <path
     d="m 664.38475,1019.5845 1.33,1.07 1.38,12.43 1.39,12.5 c 0,0 0.53,1.25 1,1.12 0.47,-0.13 0.4,7.39 0.4,7.39 0,0 -5.12,-3.15 -6.95,1 l -1.43,-10.07 c 0,0 -1.83,-10.29 -1.78,-11.09 0.05,-0.8 -0.94,-9.49 -0.94,-9.49 z"
     id="path2469"
     inkscape:connector-curvature="0"
     style="fill:#3f3d56" />
  <path
     d="m 633.91475,1020.1645 -1,1.2 c 0,0 0.09,5.17 -0.67,6.42 -0.76,1.25 2.09,8.55 3.16,8.11 1.07,-0.44 3.48,-11.85 3.48,-12 0,-0.15 -4.97,-3.73 -4.97,-3.73 z"
     id="path2471"
     inkscape:connector-curvature="0"
     style="fill:#3f3d56" />
  <path
     d="m 633.82475,1027.5145 c 0,0 -3.12,3.16 -2.9,4.68 0.22,1.52 3.21,6.27 7.49,3.72 0,0 3.96,-7.46 -4.59,-8.4 z"
     id="path2473"
     inkscape:connector-curvature="0"
     style="fill:#3f3d56" />
  <path
     d="m 646.59475,1122.2345 c -0.78,0 -5.2,0 -5.2,0 l -0.18,-0.21 c 1.13,-0.39 3.57,-0.97 5.38,0.21 z"
     id="path2475"
     inkscape:connector-curvature="0"
     style="opacity:0.1" />
  <path
     d="m 659.23475,1122.2345 c -0.78,0 -5.2,0 -5.2,0 l -0.18,-0.21 c 1.13,-0.39 3.57,-0.97 5.38,0.21 z"
     id="path2477"
     inkscape:connector-curvature="0"
     style="opacity:0.1" />
  <path
     d="m 645.93475,999.28448 a 1.52,1.52 0 0 1 0.6,0.06 2.41,2.41 0 0 1 0.75,0.57 2.71,2.71 0 0 0 2.55,0.49002 3.39,3.39 0 0 1 1,-0.28 1.5,1.5 0 0 1 1.22,0.81 c 0.26,0.44 0.4,0.94 0.63,1.39 a 1.78,1.78 0 0 0 1.09,1 1.88,1.88 0 0 1 0.68,0.16 0.91,0.91 0 0 1 0.3,0.42 c 0.42,0.9 0.75,2 1.64,2.41 a 2.51,2.51 0 0 0 1,0.23 2.16,2.16 0 0 0 1.06,-0.2 2.11,2.11 0 0 0 0.79,-0.78 4.87,4.87 0 0 0 0.48,-3.13 8.53,8.53 0 0 0 -1.38,-3.77002 7.84,7.84 0 0 0 -7.17,-3.32 11.3,11.3 0 0 0 -1.43,0.28 7.78,7.78 0 0 0 -4.41,2.73 9,9 0 0 1 -0.82,1 c 0.48,-0.02 0.95,-0.06 1.42,-0.07 z"
     id="path2479"
     inkscape:connector-curvature="0"
     style="fill:#3f3d56" />
  <path
     d="m 645.93475,999.28448 a 1.52,1.52 0 0 1 0.6,0.06 2.41,2.41 0 0 1 0.75,0.57 2.71,2.71 0 0 0 2.55,0.49002 3.39,3.39 0 0 1 1,-0.28 1.5,1.5 0 0 1 1.22,0.81 c 0.26,0.44 0.4,0.94 0.63,1.39 a 1.78,1.78 0 0 0 1.09,1 1.88,1.88 0 0 1 0.68,0.16 0.91,0.91 0 0 1 0.3,0.42 c 0.42,0.9 0.75,2 1.64,2.41 a 2.51,2.51 0 0 0 1,0.23 2.16,2.16 0 0 0 1.06,-0.2 2.11,2.11 0 0 0 0.79,-0.78 4.87,4.87 0 0 0 0.48,-3.13 8.53,8.53 0 0 0 -1.38,-3.77002 7.84,7.84 0 0 0 -7.17,-3.32 11.3,11.3 0 0 0 -1.43,0.28 7.78,7.78 0 0 0 -4.41,2.73 9,9 0 0 1 -0.82,1 c 0.48,-0.02 0.95,-0.06 1.42,-0.07 z"
     id="path2481"
     inkscape:connector-curvature="0"
     style="opacity:0.1" />
  <path
     d="m 639.12475,1014.2445 c 0,0 0.31,2.49 -0.76,3.11 -1.07,0.62 0.76,-3.11 0.76,-3.11 z"
     id="path2483"
     inkscape:connector-curvature="0"
     style="opacity:0.1" />
  <path
     d="m 644.69475,1011.3245 c 0,0 -3.77,0.24 -3.79,0.78 -0.02,0.54 3.79,-0.78 3.79,-0.78 z"
     id="path2485"
     inkscape:connector-curvature="0"
     style="opacity:0.1" />
  <path
     d="m 665.71475,1005.4345 -14,7.57 -13.24,7.16 -3.88,-3.21 7.78,-13.73 6.54,-11.56002 a 3,3 0 0 0 1.53,0.09 9.5,9.5 0 0 0 1.32,-0.56 c 2.19,-0.87 4.66,0.72 5.89,2.71 1.23,1.99 1.69,4.38 2.74,6.49002 a 5.23,5.23 0 0 0 1.63,2.06 2.48,2.48 0 0 0 2.5,0.29 z"
     id="path2487"
     inkscape:connector-curvature="0"
     style="opacity:0.2;fill:#ffffff" />
  <rect
     x="634.02472"
     y="1016.8045"
     width="4.73"
     height="9.4899998"
     rx="1.0599999"
     ry="1.0599999"
     id="rect2489"
     style="fill:#3f3d56" />
  <rect
     x="634.02472"
     y="1016.8045"
     width="4.73"
     height="9.4899998"
     rx="1.0599999"
     ry="1.0599999"
     id="rect2491"
     style="opacity:0.2" />
  <circle
     cx="636.23474"
     cy="1019.5945"
     r="0.70999998"
     id="circle2493"
     style="fill:#3f3d56" />
  <path
     d="m 634.08475,1031.5845 c 0,0 0.79,-3.69 -0.26,-4.86 -1.05,-1.17 -0.72,-7.3 0.89,-7.17 1.61,0.13 4,5 3.61,6 -0.39,1 -1.92,6.29 -1.92,6.29 z"
     id="path2495"
     inkscape:connector-curvature="0"
     style="fill:#3f3d56" />
  <circle
     cx="102.81475"
     cy="673.75446"
     r="1.12"
     id="circle2497"
     style="fill:#ffffff" />
  <circle
     cx="222.47475"
     cy="648.83447"
     r="1.12"
     id="circle2499"
     style="fill:#ffffff" />
  <circle
     cx="763.24475"
     cy="650.27448"
     r="1.12"
     id="circle2501"
     style="fill:#ffffff" />
  <circle
     cx="102.81475"
     cy="723.15448"
     r="1.12"
     id="circle2503"
     style="fill:#ffffff" />
  <circle
     cx="799.11475"
     cy="689.24451"
     r="1.12"
     id="circle2505"
     style="fill:#ffffff" />
  <circle
     cx="808.37476"
     cy="756.32446"
     r="1.12"
     id="circle2507"
     style="fill:#ffffff" />
  <circle
     cx="1031.4248"
     cy="678.28448"
     r="1.12"
     id="circle2509"
     style="fill:#ffffff" />
  <circle
     cx="357.96475"
     cy="627.27448"
     r="1.12"
     id="circle2511"
     style="fill:#ffffff" />
  <circle
     cx="889.32471"
     cy="638.77448"
     r="1.12"
     id="circle2513"
     style="fill:#ffffff" />
  <circle
     cx="782.60474"
     cy="826.32452"
     r="1.12"
     id="circle2515"
     style="fill:#ffffff" />
  <circle
     cx="221.34474"
     cy="871.97449"
     r="1.12"
     id="circle2517"
     style="fill:#ffffff" />
  <circle
     cx="797.99475"
     cy="837.65448"
     r="1.12"
     id="circle2519"
     style="fill:#ffffff" />
  <circle
     cx="1069.0548"
     cy="755.09448"
     r="1.12"
     id="circle2521"
     style="fill:#ffffff" />
  <circle
     cx="317.38477"
     cy="712.20447"
     r="1.12"
     id="circle2523"
     style="fill:#ffffff" />
  <path
     style="opacity:1;fill:#3f3d56;fill-opacity:1;fill-rule:nonzero;stroke:none;stroke-width:48.88964081;stroke-linecap:round;stroke-linejoin:round;stroke-miterlimit:4;stroke-dasharray:none;stroke-dashoffset:0;stroke-opacity:1;paint-order:normal"
     d="m 1082.8301,1130.426 v 69.4409 H 134.52344 v -35.0504 H 78.095703 V 1132.806 H 0.03515621 v 423.1895 H 78.095703 v -2.0796 H 1082.8301 v 0.01 h 78.3301 V 1130.426 h -59.4878 z"
     id="rect3073"
     inkscape:connector-curvature="0"
     sodipodi:nodetypes="cccccccccccccccc" />
  <circle
     style="fill:#ffffff"
     cx="456.4722"
     cy="915.0036"
     r="1.12"
     id="circle2523-1" />
  <circle
     cx="376.90457"
     cy="197.82555"
     r="1.12"
     id="circle2509-8"
     style="fill:#ffffff" />
  <circle
     cx="234.80443"
     cy="158.31554"
     r="1.12"
     id="circle2513-6"
     style="fill:#ffffff" />
  <circle
     cx="128.08446"
     cy="345.8656"
     r="1.12"
     id="circle2515-6"
     style="fill:#ffffff" />
  <circle
     cx="414.53458"
     cy="274.63553"
     r="1.12"
     id="circle2521-2"
     style="fill:#ffffff" />
  <circle
     cx="740.87793"
     cy="411.64603"
     r="1.12"
     id="circle2501-6-2"
     style="fill:#ffffff" />
  <circle
     cx="776.74792"
     cy="450.61606"
     r="1.12"
     id="circle2505-8-1"
     style="fill:#ffffff" />
  <circle
     cx="786.00793"
     cy="517.69598"
     r="1.12"
     id="circle2507-9-3"
     style="fill:#ffffff" />
  <circle
     cx="1009.058"
     cy="439.65604"
     r="1.12"
     id="circle2509-8-5"
     style="fill:#ffffff" />
  <circle
     cx="866.95789"
     cy="400.14603"
     r="1.12"
     id="circle2513-6-9"
     style="fill:#ffffff" />
  <circle
     cx="760.23792"
     cy="587.69611"
     r="1.12"
     id="circle2515-6-7"
     style="fill:#ffffff" />
  <circle
     cx="1046.688"
     cy="516.466"
     r="1.12"
     id="circle2521-2-1"
     style="fill:#ffffff" />
  <circle
     cx="139.83717"
     cy="459.72928"
     r="1.12"
     id="circle2501-6-2-3"
     style="fill:#ffffff" />
  <circle
     cx="175.70717"
     cy="498.69931"
     r="1.12"
     id="circle2505-8-1-3"
     style="fill:#ffffff" />
  <circle
     cx="184.96718"
     cy="565.77924"
     r="1.12"
     id="circle2507-9-3-2"
     style="fill:#ffffff" />
  <circle
     cx="408.01727"
     cy="487.73929"
     r="1.12"
     id="circle2509-8-5-7"
     style="fill:#ffffff" />
  <circle
     cx="355.71967"
     cy="395.19626"
     id="circle2513-6-9-7"
     style="fill:#ffffff"
     r="1.12" />
  <circle
     cx="159.19716"
     cy="635.77942"
     r="1.12"
     id="circle2515-6-7-3"
     style="fill:#ffffff" />
  <circle
     cx="445.64728"
     cy="564.54926"
     r="1.12"
     id="circle2521-2-1-0"
     style="fill:#ffffff" />
  <circle
     cx="696.09711"
     cy="101.12"
     r="1.12"
     id="circle2497-7"
     style="fill:#ffffff" />
  <circle
     cx="1086.116"
     cy="116.32608"
     r="1.12"
     id="circle2523-3"
     style="fill:#ffffff" />
  <circle
     cx="387.49451"
     cy="28.644844"
     r="1.12"
     id="circle2523-5"
     style="fill:#ffffff" />
  <circle
     cx="1124.7236"
     cy="4.8605723"
     r="1.12"
     id="circle2523-4"
     style="fill:#ffffff" />
  <circle
     cx="14.142136"
     cy="31.47327"
     r="1.12"
     id="circle2523-7"
     style="fill:#ffffff" />
  <circle
     cx="144.24979"
     cy="196.93625"
     r="1.12"
     id="circle2523-13"
     style="fill:#ffffff" />
</svg>
